<?xml version="1.0" encoding="UTF-8" standalone="no"?>
<!-- Created with Inkscape (http://www.inkscape.org/) -->

<svg
   width="172.19099mm"
   height="172.19099mm"
   viewBox="0 0 172.19099 172.19099"
   version="1.1"
   id="svg624"
   inkscape:version="1.2.1 (9c6d41e, 2022-07-14)"
   sodipodi:docname="favicon.svg"
   xmlns:inkscape="http://www.inkscape.org/namespaces/inkscape"
   xmlns:sodipodi="http://sodipodi.sourceforge.net/DTD/sodipodi-0.dtd"
   xmlns="http://www.w3.org/2000/svg"
   xmlns:svg="http://www.w3.org/2000/svg">
  <sodipodi:namedview
     id="namedview626"
     pagecolor="#ffffff"
     bordercolor="#000000"
     borderopacity="0.25"
     inkscape:showpageshadow="2"
     inkscape:pageopacity="0.0"
     inkscape:pagecheckerboard="0"
     inkscape:deskcolor="#d1d1d1"
     inkscape:document-units="mm"
     showgrid="false"
     inkscape:zoom="0.90425192"
     inkscape:cx="18.247127"
     inkscape:cy="238.31854"
     inkscape:window-width="2560"
     inkscape:window-height="1387"
     inkscape:window-x="1512"
     inkscape:window-y="25"
     inkscape:window-maximized="0"
     inkscape:current-layer="layer1" />
  <defs
     id="defs621" />
  <g
     inkscape:label="Layer 1"
     inkscape:groupmode="layer"
     id="layer1"
     transform="translate(-19.616364,-61.146019)">
    <circle
       style="fill:#ff771d;stroke-width:0.819572;stroke-linejoin:round;stroke-dashoffset:1334.34;fill-opacity:1"
       id="path1574"
       cx="105.71187"
       cy="147.24152"
       r="86.095497" />
    <path
       style="fill-rule:evenodd;stroke-width:0.40497"
       d="m 97.534698,228.85371 c 0.0546,0.0844 0.11069,0.16733 0.16795,0.24908 -0.0572,-0.0817 -0.11335,-0.16476 -0.16795,-0.24908 z"
       id="path5247" />
    <path
       style="fill-rule:evenodd;stroke-width:0.40497"
       d="m 98.179618,226.59338 c -0.25517,0.65456 -0.50679,1.31291 -0.91674,1.81281 0.0237,0.0424 0.049,0.0833 0.0734,0.12506 -0.0245,-0.042 -0.0521,-0.0809 -0.076,-0.12351 0.41058,-0.50067 0.6637,-1.15881 0.91933,-1.81436 z"
       id="path5245" />
    <path
       style="fill-rule:evenodd;stroke-width:0.40497"
       d="m 110.35459,226.16963 c 0.0218,0.008 0.0444,0.0156 0.0677,0.0222 -0.0233,-0.007 -0.0459,-0.0141 -0.0677,-0.0222 z"
       id="path5243" />
    <path
       style="fill-rule:evenodd;stroke-width:0.40497"
       d="m 106.77289,225.95363 c 0.15073,0.007 0.30081,0.0108 0.45062,0.0114 -0.14981,-4.8e-4 -0.29989,-0.004 -0.45062,-0.0114 z"
       id="path5241" />
    <path
       style="fill-rule:evenodd;stroke-width:0.40497"
       d="m 107.8984,225.94226 c -0.16383,0.012 -0.32868,0.0191 -0.49402,0.0217 0.16533,-0.003 0.33019,-0.01 0.49402,-0.0217 z"
       id="path5239" />
    <path
       style="fill-rule:evenodd;stroke-width:0.40497"
       d="m 106.14296,225.90815 c 0.13131,0.0127 0.26241,0.0233 0.39326,0.032 -0.13085,-0.009 -0.26195,-0.0194 -0.39326,-0.032 z"
       id="path5237" />
    <path
       style="fill-rule:evenodd;stroke-width:0.40497"
       d="m 108.56968,225.86423 c -0.17746,0.0293 -0.35615,0.051 -0.53588,0.0672 0.17977,-0.0162 0.35838,-0.0378 0.53588,-0.0672 z"
       id="path5235" />
    <path
       style="fill-rule:evenodd;stroke-width:0.40497"
       d="m 105.54506,225.8389 c 0.0875,0.0117 0.17509,0.0227 0.26252,0.0331 -0.0874,-0.0104 -0.17499,-0.0213 -0.26252,-0.0331 z"
       id="path5233" />
    <path
       style="fill-rule:evenodd;stroke-width:0.40497"
       d="m 98.532571,225.7464 c -0.01544,0.0329 -0.03096,0.0659 -0.04599,0.0992 0.01502,-0.0333 0.03057,-0.0663 0.04599,-0.0992 z"
       id="path5231" />
    <path
       style="fill-rule:evenodd;stroke-width:0.40497"
       d="m 109.22339,225.72211 c -0.18831,0.0515 -0.37849,0.0936 -0.56999,0.12765 0.19148,-0.0341 0.3817,-0.0761 0.56999,-0.12765 z"
       id="path5229" />
    <path
       style="fill-rule:evenodd;stroke-width:0.40497"
       d="m 104.19579,225.61721 c 0.34718,0.0648 0.69487,0.12608 1.04283,0.17829 -0.34795,-0.0522 -0.69566,-0.11355 -1.04283,-0.17829 z"
       id="path5227" />
    <path
       style="fill-rule:evenodd;stroke-width:0.40497"
       d="m 98.744445,225.33661 c -0.01905,0.033 -0.03746,0.0666 -0.05581,0.10025 0.01834,-0.0337 0.03677,-0.0673 0.05581,-0.10025 z"
       id="path5225" />
    <path
       style="fill-rule:evenodd;stroke-width:0.40497"
       d="m 115.10003,225.2069 c -0.22551,0.0414 -0.45826,0.0759 -0.694,0.10697 0.23578,-0.0311 0.46842,-0.0657 0.694,-0.10697 z"
       id="path5223" />
    <path
       style="fill-rule:evenodd;stroke-width:0.40497"
       d="m 115.89533,225.01828 c -0.22914,0.0706 -0.47186,0.12761 -0.72347,0.1757 0.25169,-0.048 0.4942,-0.10526 0.72347,-0.1757 z"
       id="path5217" />
    <g
       id="g18391"
       style="fill:#00ff00"
       transform="matrix(1.3390572,0,0,-1.3414177,119.23215,-157.72478)">
      <path
         id="path14363"
         style="fill:#282828;fill-opacity:1;stroke:none;stroke-width:2.04472;stroke-linejoin:round;stroke-dashoffset:1334.34"
         d="m -10.096872,169.36384 a 57.982758,57.982758 0 0 0 -57.982422,57.98242 57.982758,57.982758 0 0 0 57.982422,57.98242 57.982758,57.982758 0 0 0 57.982423,-57.98242 57.982758,57.982758 0 0 0 -57.982423,-57.98242 z m -25.695312,22.62304 c 0.220384,-0.003 0.433934,0.005 0.638671,0.0234 1.076542,0.0476 1.453556,0.31156 1.132813,0.78906 -0.925342,1.14363 -1.572833,1.96177 -1.945313,2.45313 -0.691237,0.97 -0.857085,1.82642 -0.490234,2.56836 1.421259,2.58858 1.261122,4.90034 -0.490234,6.9375 -0.514987,0.58668 -0.781938,1.16049 -0.798828,1.72461 -0.04461,0.46064 0.109687,1.14795 0.466796,2.06054 0.385276,1.01766 0.440189,1.9523 0.166016,2.81055 -0.503728,1.25585 -0.780485,2.42545 -0.828125,3.50195 -0.04047,0.68303 0.44222,1.53207 1.443359,2.55274 0.9351,0.98124 1.277696,1.95624 1.03125,2.91797 -0.330514,1.4884 0.180538,3.39437 1.533204,5.7207 0.296699,0.4801 0.516131,1.51567 0.662109,3.10156 0.04625,0.56008 0.137349,0.98007 0.269531,1.27539 0.09311,-0.002 0.19309,0.001 0.28711,0 0.22144,-0.32849 0.589798,-0.85353 1.248047,-1.75976 0.526296,-0.75777 0.674438,-1.3566 0.443359,-1.79883 -0.527779,-0.92234 -0.482438,-2.00174 0.140625,-3.23242 0.6984,-1.36348 0.879064,-2.67144 0.542969,-3.92578 -0.126037,-0.47037 -0.05455,-0.93914 0.21289,-1.40235 0.37248,-0.49136 0.636402,-0.87034 0.789063,-1.13476 0.459098,-0.7952 0.536033,-2.19058 0.226562,-4.17969 -0.03485,-0.55025 0.06146,-1.02232 0.291016,-1.41992 0.35407,-0.76706 0.585041,-1.36355 0.697266,-1.78516 0.173677,-0.60614 0.214206,-1.28848 0.123046,-2.04883 -0.156748,-0.79825 -0.186193,-1.4337 -0.08984,-1.9082 0.135808,-0.54054 0.495154,-1.08362 1.076172,-1.63086 0.581018,-0.54724 0.898121,-1.02823 0.957031,-1.43555 0.110581,-0.42118 0.07816,-0.85794 -0.09961,-1.31445 -0.219786,-0.61331 -0.331737,-1.03347 -0.335937,-1.25586 -0.202902,-1.17743 -0.306347,-1.88113 -0.310547,-2.10351 0.117804,-0.81468 0.670057,-0.93522 1.664063,-0.36133 1.059619,0.61177 2.461548,2.47917 4.193359,5.59961 2.01468,3.54875 3.175317,6.73943 3.486328,9.56836 0.348878,2.76332 0.297291,6.33355 -0.154297,10.71289 -0.544231,5.07467 -1.49134,8.1291 -2.83789,9.16211 -0.03066,0.0235 -0.06304,0.0451 -0.09375,0.0684 0.514203,0.68341 0.886429,1.59715 1.105468,2.76757 0.105008,0.81212 0.218571,2.80198 0.337891,5.96289 0.08962,3.05631 0.392813,5.85754 0.908203,8.40821 0.484693,2.2228 0.702813,3.56475 0.658203,4.02539 -5.05e-4,0.65949 -0.06498,1.23311 -0.189453,1.73047 1.068178,0.22852 1.83173,0.8085 2.292969,1.74023 0.639949,1.34097 0.277716,2.69754 -1.089844,4.07227 -0.05707,0.057 -0.117221,0.11197 -0.175781,0.16797 0.0333,0.13955 0.06259,0.28543 0.08594,0.44336 0.169582,1.46697 -0.231644,2.58517 -1.203125,3.34961 -3.384871,2.41939 -6.395025,3.30989 -9.03125,2.67187 -1.674469,-0.39157 -2.748182,-1.05752 -3.222656,-1.99414 -0.105981,-0.21993 -0.171286,-0.4452 -0.197266,-0.67383 -0.885147,-0.32687 -1.547332,-0.82921 -1.984375,-1.51172 -0.493736,-0.77101 -0.474281,-1.54572 0.05469,-2.32031 -0.928161,-0.23078 -1.813649,-0.59359 -2.652344,-1.10352 -2.839538,-1.81699 -5.881781,-5.42727 -9.123047,-10.83203 -3.243436,-5.37195 -4.284775,-9.65643 -3.136719,-12.85937 -0.484697,-0.58301 -1.036203,-1.5216 -1.654297,-2.83008 -3.037224,-6.5248 -4.749072,-10.93756 -5.142578,-13.24023 -0.873962,-5.98357 0.823338,-12.71289 5.09375,-20.1875 2.20636,-3.89502 5.440366,-6.55464 9.707032,-7.97852 0.385035,-0.13089 0.758369,-0.24189 1.115234,-0.33399 0.802891,-0.20721 1.534158,-0.31614 2.195313,-0.32617 z m 51.275391,0.22266 c 0.661565,0.01 1.39387,0.1188 2.197266,0.32617 0.357082,0.0921 0.729996,0.20484 1.115234,0.33594 4.269325,1.42478 7.507107,4.08497 9.714844,7.98242 4.273066,7.47927 5.970209,14.21388 5.095703,20.20117 -0.393748,2.30412 -2.10737,6.71919 -5.146484,13.24805 -0.618476,1.30929 -1.169301,2.24868 -1.654297,2.83203 1.148765,3.20496 0.106769,7.49187 -3.138672,12.86719 -3.243285,5.40809 -6.287601,9.01976 -9.128907,10.83789 -0.839218,0.51026 -1.725559,0.87455 -2.654297,1.10547 0.529299,0.77507 0.548729,1.54883 0.05469,2.32031 -0.437312,0.68294 -1.098681,1.1866 -1.9843751,1.51367 -0.026013,0.22877 -0.091252,0.45376 -0.1972656,0.67383 -0.4747749,0.93719 -1.5490977,1.60429 -3.2246094,1.99609 -2.6378636,0.6384 -5.65012487,-0.25487 -9.0371095,-2.67578 -0.9720843,-0.76493 -1.3747663,-1.88171 -1.2050781,-3.34961 0.023404,-0.15802 0.052633,-0.30372 0.085937,-0.44336 -0.058617,-0.0562 -0.1167066,-0.11089 -0.1738282,-0.16796 -1.3684073,-1.37558 -1.7340927,-2.73439 -1.09375,-4.07618 0.4615328,-0.93233 1.2280307,-1.51156 2.296875,-1.74023 -0.1245558,-0.49766 -0.1889473,-1.07252 -0.1894531,-1.73242 -0.044645,-0.46093 0.1732041,-1.80318 0.6582031,-4.02735 0.5157146,-2.55226 0.8185367,-5.35586 0.9082032,-8.41406 0.1193975,-3.16291 0.23281043,-5.15222 0.33789061,-5.96484 0.21921976,-1.17116 0.59096149,-2.08765 1.10546877,-2.77149 -0.0307529,-0.0234 -0.0611209,-0.0448 -0.0917969,-0.0684 -1.34738918,-1.03364 -2.29722268,-4.09013 -2.84179688,-9.16797 -0.4518686,-4.38204 -0.5014316,-7.95369 -0.1523438,-10.71875 0.3112126,-2.83069 1.4723464,-6.02325 3.48828131,-9.57421 1.73288919,-3.12238 3.13308149,-4.98942 4.19335949,-5.60157 0.994629,-0.57425 1.5500863,-0.45383 1.6679687,0.36133 -0.00415,0.22252 -0.1075112,0.92536 -0.3105468,2.10352 -0.00415,0.22252 -0.1179769,0.64215 -0.3378907,1.25586 -0.1778681,0.45677 -0.210296,0.89495 -0.099609,1.3164 0.058941,0.40758 0.3776071,0.88798 0.9589844,1.43555 0.5813775,0.54759 0.9402848,1.09194 1.0761719,1.63281 0.096412,0.4748 0.065058,1.11141 -0.091797,1.91016 -0.091214,0.76083 -0.048789,1.44232 0.125,2.04883 0.1122874,0.42188 0.3429793,1.01957 0.6972657,1.78711 0.2296994,0.39786 0.3278339,0.86931 0.2929687,1.41992 -0.3096651,1.99034 -0.2347742,3.38789 0.2246094,4.18359 0.152759,0.26458 0.4183105,0.64311 0.7910156,1.13477 0.2676142,0.4635 0.3370532,0.93168 0.2109382,1.40234 -0.3363087,1.25513 -0.155866,2.56537 0.542968,3.92969 0.623462,1.23147 0.670687,2.30953 0.142578,3.23242 -0.231222,0.44251 -0.08326,1.04256 0.44336,1.80078 0.658652,0.9068 1.028426,1.43107 1.25,1.75977 0.09409,10e-4 0.191974,3.2e-4 0.285156,0.002 0.132265,-0.2955 0.223246,-0.71692 0.269531,-1.27734 0.146071,-1.58689 0.367178,-2.62312 0.664063,-3.10352 1.353504,-2.32777 1.863926,-4.23529 1.533203,-5.72461 -0.246592,-0.96232 0.09751,-1.93614 1.033203,-2.91797 1.001762,-1.02132 1.483854,-1.87319 1.44336,-2.55664 -0.04767,-1.07719 -0.324078,-2.24532 -0.828125,-3.50195 -0.274338,-0.85878 -0.221455,-1.79619 0.164062,-2.81445 0.357337,-0.91317 0.513391,-1.59962 0.46875,-2.06055 -0.0169,-0.56449 -0.283517,-1.13757 -0.798828,-1.72461 -1.752438,-2.03843 -1.914325,-4.35317 -0.492188,-6.94336 0.367081,-0.74242 0.201436,-1.59776 -0.490234,-2.56836 -0.372706,-0.49167 -1.021357,-1.31267 -1.947266,-2.45703 -0.320949,-0.47778 0.05755,-0.74139 1.134766,-0.78906 0.204867,-0.0186 0.41815,-0.0268 0.638672,-0.0234 z"
         transform="scale(1,-1)" />
      <g
         id="g15477"
         transform="translate(88.882584,-3.7209709)">
        <path
           id="path15457"
           style="clip-rule:evenodd;fill:#000000;fill-opacity:0.258974;fill-rule:evenodd;stroke-width:1.62322"
           d="m -121.87975,-226.6772 c 0.0381,-0.0857 0.0803,-0.1622 0.12607,-0.22549 0.0472,0.0718 0.10449,0.15755 0.15453,0.23176 -0.0951,-0.001 -0.18639,-0.005 -0.28059,-0.006 z m 0.47136,-2.1023 c -0.37233,-0.31573 -0.8261,-0.66806 -1.39842,-1.0771 -2.63321,-1.8819 -5.16514,-2.98045 -7.60102,-3.29705 -1.2051,-0.27009 -2.17547,-0.45754 -2.94194,-0.57165 0.33565,-0.13659 0.69674,-0.25231 1.08708,-0.34547 1.62118,-0.40585 3.44907,-0.33618 5.48736,0.20997 3.91976,1.0503 6.33654,1.75428 7.24955,2.10989 l 3.82237,-0.1541 c 2.55218,-0.32444 3.94968,-1.15227 4.19461,-2.48647 0.17261,-0.85113 0.50461,-2.92085 0.9934,-6.2063 0.40517,-2.97343 0.76436,-5.05752 1.08659,-6.2601 1.02215,-3.81472 0.47767,-6.79018 -1.6386,-8.9268 2.03158,0.99136 3.30111,1.78152 3.81609,2.3682 0.55444,0.65272 0.83161,1.70669 0.83269,3.16397 0.0446,0.46065 -0.17364,1.80202 -0.65832,4.02481 -0.5154,2.55066 -0.81781,5.3524 -0.90742,8.40871 -0.11933,3.16095 -0.23215,5.14991 -0.33715,5.96201 -0.21904,1.17045 -0.59212,2.08573 -1.1063,2.76914 -1.32535,-0.99334 -2.8504,-1.64349 -4.57691,-1.9419 -1.45313,-0.22132 -2.78679,-0.15855 -3.99906,0.18881 -1.14668,0.3095 -2.12658,0.83069 -2.94021,1.56552 -0.18242,0.1684 -0.33236,0.33265 -0.46438,0.49589 z" />
        <path
           id="path15459"
           style="fill:#000000;fill-opacity:0.258974;stroke:none;stroke-width:3.31904;stroke-linejoin:round;stroke-dashoffset:1334.34"
           d="m -105.56541,-257.77892 c -2.72052,-1.7512 -7.80208,-4.30674 -13.70088,-3.80575 0.0287,-0.0116 0.0529,-0.0263 0.0822,-0.0371 0.026,-0.22864 0.091,-0.45264 0.19702,-0.67258 0.47448,-0.9366 1.54828,-1.60368 3.22275,-1.99525 2.63622,-0.63802 5.64706,0.25343 9.03194,2.67284 0.97148,0.76445 1.37291,1.88161 1.20334,3.34861 -0.0233,0.15792 -0.0526,0.30349 -0.0859,0.44303 0.0163,0.0163 0.0335,0.0305 0.0499,0.0461 z" />
      </g>
      <g
         id="g15473"
         transform="translate(-100.42678,-8.1616118)">
        <path
           id="path15463"
           style="clip-rule:evenodd;fill:#000000;fill-opacity:0.258974;fill-rule:evenodd;stroke-width:1.62422"
           d="m 113.05994,-222.50512 c -0.0381,-0.0858 -0.0804,-0.16229 -0.12618,-0.22563 -0.0473,0.0719 -0.10455,0.15766 -0.15462,0.23191 0.0951,-0.001 0.1865,-0.005 0.28076,-0.006 z m -0.47165,-2.1036 c 0.37256,-0.31593 0.82662,-0.66848 1.39929,-1.07778 2.63485,-1.88306 5.16836,-2.9823 7.60576,-3.29909 1.20586,-0.27023 2.17682,-0.45784 2.94377,-0.57201 -0.33587,-0.13669 -0.69717,-0.25247 -1.08776,-0.3457 -1.62219,-0.40609 -3.45122,-0.3364 -5.49078,0.21011 -3.9222,1.05095 -6.34048,1.75538 -7.25406,2.1112 l -3.82476,-0.15419 c -2.55377,-0.32464 -3.95213,-1.15299 -4.19721,-2.48802 -0.17273,-0.85166 -0.50494,-2.92268 -0.99403,-6.21016 -0.40542,-2.97531 -0.76483,-5.06067 -1.08726,-6.264 -1.022788,-3.8171 -0.47796,-6.79441 1.63962,-8.93236 -2.03285,0.99197 -3.30316,1.78263 -3.818472,2.36967 -0.554783,0.65312 -0.832113,1.70776 -0.833204,3.16593 -0.04465,0.46094 0.173752,1.80315 0.658734,4.02734 0.515718,2.55223 0.818318,5.35572 0.907982,8.41394 0.119404,3.16291 0.23229,5.1531 0.337362,5.96572 0.219223,1.17117 0.592498,2.08702 1.106988,2.77087 1.32617,-0.99396 2.85218,-1.64452 4.57976,-1.94312 1.45404,-0.22146 2.78852,-0.15865 4.00156,0.18893 1.14739,0.30969 2.12789,0.83121 2.94203,1.56649 0.18254,0.16852 0.33257,0.33287 0.46467,0.4962 z" />
        <path
           id="path15465"
           style="fill:#000000;fill-opacity:0.258974;stroke:none;stroke-width:3.3211;stroke-linejoin:round;stroke-dashoffset:1334.34"
           d="m 96.735434,-253.62621 c 2.722211,-1.75229 7.806936,-4.30941 13.709406,-3.80811 -0.0287,-0.0115 -0.0529,-0.0263 -0.0823,-0.0372 -0.026,-0.22879 -0.0911,-0.45292 -0.19716,-0.67299 -0.47477,-0.9372 -1.54924,-1.60469 -3.22475,-1.99651 -2.63787,-0.63842 -5.65058,0.25359 -9.037564,2.6745 -0.972087,0.76492 -1.373773,1.88278 -1.204094,3.3507 0.0234,0.15801 0.05268,0.30367 0.08598,0.44331 -0.01627,0.0165 -0.03352,0.0305 -0.04999,0.0461 z" />
      </g>
    </g>
  </g>
</svg>
