<?xml version="1.0" encoding="UTF-8" standalone="no"?>
<!-- Created with Inkscape (http://www.inkscape.org/) -->

<svg
   width="172.19099mm"
   height="172.19099mm"
   viewBox="0 0 172.19099 172.19099"
   version="1.1"
   id="svg1271"
   inkscape:version="1.2.1 (9c6d41e, 2022-07-14)"
   sodipodi:docname="gun.svg"
   xmlns:inkscape="http://www.inkscape.org/namespaces/inkscape"
   xmlns:sodipodi="http://sodipodi.sourceforge.net/DTD/sodipodi-0.dtd"
   xmlns="http://www.w3.org/2000/svg"
   xmlns:svg="http://www.w3.org/2000/svg">
  <sodipodi:namedview
     id="namedview1273"
     pagecolor="#ffffff"
     bordercolor="#000000"
     borderopacity="0.25"
     inkscape:showpageshadow="2"
     inkscape:pageopacity="0.0"
     inkscape:pagecheckerboard="0"
     inkscape:deskcolor="#d1d1d1"
     inkscape:document-units="mm"
     showgrid="false"
     inkscape:zoom="0.32581011"
     inkscape:cx="217.91834"
     inkscape:cy="371.38196"
     inkscape:window-width="1512"
     inkscape:window-height="916"
     inkscape:window-x="0"
     inkscape:window-y="38"
     inkscape:window-maximized="0"
     inkscape:current-layer="layer1" />
  <defs
     id="defs1268" />
  <g
     inkscape:label="Layer 1"
     inkscape:groupmode="layer"
     id="layer1"
     transform="translate(28.205669,-14.582466)">
    <path
       style="fill-rule:evenodd;stroke-width:0.40497"
       d="m 24.56715,86.18992 c 0.0546,0.0844 0.11069,0.16733 0.16795,0.24908 -0.0572,-0.0817 -0.11335,-0.16476 -0.16795,-0.24908 z"
       id="path5247-3" />
    <path
       style="fill-rule:evenodd;stroke-width:0.40497"
       d="m 25.21207,83.92959 c -0.25517,0.65456 -0.50679,1.31291 -0.91674,1.81281 0.0237,0.0424 0.049,0.0833 0.0734,0.12506 -0.0245,-0.042 -0.0521,-0.0809 -0.076,-0.12351 0.41058,-0.50067 0.6637,-1.15881 0.91933,-1.81436 z"
       id="path5245-9" />
    <path
       style="fill-rule:evenodd;stroke-width:0.40497"
       d="m 37.38704,83.50584 c 0.0218,0.008 0.0444,0.0156 0.0677,0.0222 -0.0233,-0.007 -0.0459,-0.0141 -0.0677,-0.0222 z"
       id="path5243-0" />
    <path
       style="fill-rule:evenodd;stroke-width:0.40497"
       d="m 33.80535,83.28984 c 0.15073,0.007 0.30081,0.0108 0.45062,0.0114 -0.14981,-4.8e-4 -0.29989,-0.004 -0.45062,-0.0114 z"
       id="path5241-5" />
    <path
       style="fill-rule:evenodd;stroke-width:0.40497"
       d="m 34.93086,83.27847 c -0.16383,0.012 -0.32869,0.0191 -0.49402,0.0217 0.16533,-0.003 0.33019,-0.01 0.49402,-0.0217 z"
       id="path5239-2" />
    <path
       style="fill-rule:evenodd;stroke-width:0.40497"
       d="m 33.17541,83.24436 c 0.13131,0.0127 0.26241,0.0233 0.39326,0.032 -0.13084,-0.009 -0.26195,-0.0194 -0.39326,-0.032 z"
       id="path5237-2" />
    <path
       style="fill-rule:evenodd;stroke-width:0.40497"
       d="m 35.60214,83.20044 c -0.17746,0.0293 -0.35615,0.051 -0.53588,0.0672 0.17977,-0.0162 0.35838,-0.0378 0.53588,-0.0672 z"
       id="path5235-7" />
    <path
       style="fill-rule:evenodd;stroke-width:0.40497"
       d="m 32.57752,83.17511 c 0.0875,0.0117 0.17509,0.0227 0.26251,0.0331 -0.0874,-0.0104 -0.17498,-0.0213 -0.26251,-0.0331 z"
       id="path5233-3" />
    <path
       style="fill-rule:evenodd;stroke-width:0.40497"
       d="m 25.56502,83.08261 c -0.0154,0.0329 -0.031,0.0659 -0.046,0.0992 0.015,-0.0333 0.0306,-0.0663 0.046,-0.0992 z"
       id="path5231-7" />
    <path
       style="fill-rule:evenodd;stroke-width:0.40497"
       d="m 36.25585,83.05832 c -0.18831,0.0515 -0.37849,0.0936 -0.56999,0.12765 0.19148,-0.0341 0.3817,-0.0761 0.56999,-0.12765 z"
       id="path5229-9" />
    <path
       style="fill-rule:evenodd;stroke-width:0.40497"
       d="m 31.22825,82.95342 c 0.34718,0.0648 0.69487,0.12608 1.04283,0.17829 -0.34795,-0.0522 -0.69566,-0.11355 -1.04283,-0.17829 z"
       id="path5227-0" />
    <path
       style="fill-rule:evenodd;stroke-width:0.40497"
       d="m 25.7769,82.67282 c -0.019,0.033 -0.0375,0.0666 -0.0558,0.10025 0.0183,-0.0337 0.0368,-0.0673 0.0558,-0.10025 z"
       id="path5225-2" />
    <path
       style="fill-rule:evenodd;stroke-width:0.40497"
       d="m 42.13249,82.54311 c -0.22551,0.0414 -0.45826,0.0759 -0.69401,0.10697 0.23579,-0.0311 0.46843,-0.0657 0.69401,-0.10697 z"
       id="path5223-3" />
    <path
       style="fill-rule:evenodd;stroke-width:0.40497"
       d="m 42.92779,82.35449 c -0.22915,0.0706 -0.47186,0.12761 -0.72347,0.1757 0.25169,-0.048 0.49419,-0.10526 0.72347,-0.1757 z"
       id="path5217-9" />
    <path
       id="circle28895"
       style="fill:#282828;fill-opacity:1;stroke-width:1.038;stroke-linejoin:round;stroke-dashoffset:1334.34;stroke-opacity:0.132964"
       d="m 57.89003,22.89949 a 77.641777,77.778717 0 0 0 -77.64178,77.77872 77.641777,77.778717 0 0 0 77.64178,77.77871 77.641777,77.778717 0 0 0 77.64177,-77.77871 77.641777,77.778717 0 0 0 -77.64177,-77.77872 z m 28.89901,22.36815 c 0.0326,0.004 0.061,0.0125 0.10645,0.0294 0.14675,0.0549 0.20893,0.0938 0.31006,0.19534 0.0493,0.0494 0.0912,0.0939 0.0956,0.10025 0.003,0.006 -0.0126,0.0196 -0.0357,0.03 -0.13871,0.0647 -0.84938,0.45719 -1.60765,0.88831 -1.54998,0.88141 -1.80051,1.02416 -1.80351,1.02216 -0.002,-5.6e-4 -0.0236,-0.0602 -0.0486,-0.13281 -0.0251,-0.0726 -0.0807,-0.19947 -0.12248,-0.28267 -0.1084,-0.21206 -0.12081,-0.30228 -0.0589,-0.42581 0.0494,-0.0997 0.10834,-0.14242 0.59842,-0.42633 1.04879,-0.60969 1.87984,-0.94887 2.43602,-0.99477 0.061,-0.005 0.0976,-0.007 0.13023,-0.003 z m 1.04644,0.49402 0.0496,0.008 c 0.0271,0.004 0.11721,0.0321 0.20051,0.0615 0.3885,0.13702 0.56333,0.18164 0.80305,0.20464 0.20726,0.0199 0.39474,0.053 0.63975,0.11317 0.20485,0.0503 0.24855,0.0657 0.32815,0.11679 0.0506,0.0323 0.13822,0.0873 0.19482,0.12196 0.23521,0.14411 0.61907,0.48675 1.03301,0.9219 0.18123,0.19056 0.20931,0.21461 0.32711,0.28371 0.1272,0.0745 0.20412,0.13896 0.45166,0.37879 0.63619,0.61634 0.79076,0.82167 1.54874,2.05568 0.82215,1.33867 1.4249,2.47133 1.72599,3.24373 0.13984,0.35881 0.24745,0.70422 0.27285,0.87489 0.006,0.0432 0.009,0.14364 0.005,0.22324 -0.009,0.21411 0.004,0.28094 0.12868,0.62477 0.12261,0.33862 0.14767,0.41772 0.20567,0.64595 0.1353,0.53282 0.17292,1.01096 0.0992,1.26452 -0.0162,0.0555 -0.0641,0.19446 -0.10646,0.30903 -0.0593,0.16063 -0.0758,0.22208 -0.0718,0.26768 0.003,0.0325 0.0409,0.15528 0.0842,0.27285 0.20164,0.54627 0.26372,0.71886 0.32712,0.91261 0.0946,0.28867 0.19014,0.61672 0.20774,0.71262 0.044,0.24008 0.0737,0.62727 0.0636,0.83251 -0.0118,0.24108 -0.0964,0.45795 -0.22945,0.58911 -0.10545,0.10371 -0.59449,0.40629 -2.96157,1.82883 -2.95169,1.77423 -3.86277,2.3456 -5.16093,3.23649 -0.88679,0.60858 -1.98805,1.42524 -2.42104,1.79524 -0.15439,0.13194 -0.55675,0.44625 -0.56275,0.43925 -0.18298,-0.22753 -0.45751,-0.49865 -0.61185,-0.6041 -0.35695,-0.24381 -0.95424,-0.319 -1.60456,-0.20257 -0.0708,0.0125 -0.13462,0.0212 -0.14262,0.0202 -0.008,-0.001 -0.0245,-0.0205 -0.0377,-0.0424 -0.0297,-0.0495 -0.0122,-0.1206 0.0413,-0.1664 0.0196,-0.0168 0.17912,-0.16082 0.35399,-0.31988 1.87221,-1.70199 3.48618,-2.91531 6.13657,-4.61315 0.98698,-0.63221 3.80413,-2.31426 4.99867,-2.98483 0.22251,-0.1255 0.5821,-0.33267 0.7984,-0.46199 0.35501,-0.21184 0.39537,-0.23907 0.41547,-0.27337 0.0725,-0.12403 -0.0234,-0.30182 -0.15657,-0.29042 -0.0842,0.007 -0.40293,0.1766 -1.45211,0.77256 -0.75326,0.42779 -4.63348,2.75866 -5.14749,3.09181 -1.3808,0.89519 -2.63006,1.77323 -3.59772,2.52904 -0.78086,0.60991 -1.78011,1.4696 -2.63601,2.26756 -0.87996,0.82036 -1.28863,1.19185 -1.59525,1.44953 -0.55006,0.46225 -0.99136,0.86974 -1.28778,1.18907 -0.11718,0.12623 -0.16963,0.198 -0.25373,0.34933 -0.25149,0.45249 -0.67538,1.02772 -0.95291,1.29243 -0.23711,0.22608 -0.1977,0.20129 -2.28048,1.46296 -1.3688,0.82926 -1.93094,1.17438 -1.97714,1.21388 -0.0355,0.0304 -0.0717,0.0736 -0.0817,0.0956 -0.0502,0.11516 0.0439,0.29172 0.14004,0.26252 0.14485,-0.0441 1.10278,-0.59397 2.61689,-1.5012 1.38768,-0.83208 1.40228,-0.84167 1.65107,-1.05575 0.38923,-0.33498 0.6775,-0.68306 1.08365,-1.30845 0.36352,-0.55977 0.43598,-0.64315 1.05523,-1.20871 0.41005,-0.37442 0.56733,-0.49659 0.97721,-0.75809 0.69256,-0.44197 1.19046,-0.62703 1.74304,-0.64803 0.64566,-0.0245 0.99758,0.10868 1.28985,0.48783 0.0806,0.10439 0.12023,0.17572 0.25373,0.45992 0.0959,0.20404 0.10402,0.26898 0.0594,0.47129 -0.0484,0.21948 -0.0928,0.31938 -0.22169,0.49712 -0.34163,0.47107 -0.80526,0.89229 -1.82314,1.65675 -0.78831,0.59203 -1.07833,0.83018 -1.38906,1.13998 -0.17847,0.17794 -0.32258,0.28976 -0.81701,0.63356 -0.30359,0.21106 -0.57088,0.38941 -1.06763,0.71313 -1.49312,0.97289 -2.2338,1.50801 -2.85771,2.06447 -1.18537,1.05731 -1.76951,2.06736 -1.80661,3.12488 -0.0134,0.38179 0.0282,0.64122 0.16382,1.02061 0.18509,0.51747 0.48013,0.97409 0.9064,1.40301 0.3315,0.33357 0.66441,0.60298 1.31155,1.06299 1.07634,0.76511 1.50577,1.1609 2.05259,1.89135 0.61973,0.8278 1.30124,2.25041 1.69033,3.52847 0.31654,1.03935 0.44023,2.37572 0.32556,3.51452 -0.0919,0.9121 -0.33808,1.79458 -0.77566,2.78019 -0.20451,0.46059 -0.35885,0.7544 -0.75086,1.43195 -0.33219,0.5742 -0.41206,0.7021 -0.74362,1.18184 -0.85388,1.23547 -1.24927,1.64913 -2.99155,3.13469 -0.74673,0.6367 -1.06842,0.90135 -2.04277,1.6769 -1.03545,0.8242 -2.03286,1.60358 -3.11247,2.43293 -0.30516,0.23441 -0.56943,0.44039 -0.58653,0.45889 -0.0331,0.0335 -0.13564,0.11419 -0.30592,0.24133 -0.22917,0.17108 -0.73721,0.51347 -2.42415,1.63452 -1.15051,0.76455 -2.06933,1.27101 -3.04477,1.67845 -0.21469,0.0897 -0.97034,0.45903 -1.25212,0.61185 -0.28503,0.15453 -1.69185,0.9787 -2.13579,1.25005 -0.8688,0.53251 -1.42253,0.97954 -1.98179,1.59991 -0.37379,0.41462 -0.90077,1.12979 -1.02268,1.38803 -0.0628,0.13303 -0.16728,0.31906 -0.37,0.6599 -0.45599,0.76665 -0.54073,1.03476 -0.61443,1.94407 -0.0267,0.32756 -0.0437,0.77065 -0.0357,0.92604 0.004,0.0688 0.0188,0.2202 0.0341,0.33642 0.0153,0.11624 0.0368,0.28615 0.0475,0.37775 0.0489,0.42209 0.10458,0.70873 0.15348,0.79013 0.0207,0.0345 0.0342,0.0746 0.0362,0.11059 0.002,0.0311 0.0342,0.14783 0.0713,0.25942 0.0379,0.11421 0.0726,0.2439 0.0786,0.2961 0.0338,0.28241 0.30681,1.01586 0.94051,2.52801 0.0814,0.19414 0.38444,0.9329 0.67334,1.64125 0.90518,2.21945 1.48546,3.59316 2.66754,6.31486 0.88696,2.04201 1.39235,3.26264 2.83135,6.83679 1.3125,3.25996 2.01002,4.94405 2.6758,6.46007 0.0762,0.17367 0.19399,0.44962 0.26149,0.61288 0.12666,0.30659 0.21498,0.5099 0.28008,0.64389 0.0206,0.0425 0.0609,0.14338 0.0894,0.22428 0.0398,0.11346 0.0648,0.16379 0.10542,0.22169 0.19573,0.27705 0.59731,0.44815 1.25677,0.53485 0.25279,0.0333 0.41665,0.0452 1.06867,0.077 0.42119,0.0205 0.57908,0.0329 0.58808,0.0475 0.006,0.01 0.0242,0.0182 0.0408,0.0202 0.0388,7.2e-4 0.0509,0.025 0.0579,0.11628 0.0223,0.27799 -0.0512,0.7552 -0.12815,0.8294 -0.0135,0.0128 -0.0254,0.0333 -0.0274,0.046 -0.005,0.0351 -0.45213,0.46313 -0.74983,0.71779 -0.28667,0.24511 -0.59673,0.48392 -0.89193,0.68575 -0.10295,0.07 -0.21067,0.14739 -0.24237,0.16639 l -5.1e-4,-0.002 c -0.11388,0.0801 -1.01739,0.60376 -1.3839,0.80409 -0.62961,0.34439 -1.10766,0.62464 -1.68413,0.9896 -0.29639,0.18971 -0.54581,0.33907 -0.54881,0.34107 -0.005,-0.001 -0.98946,-2.39392 -2.18798,-5.31751 -1.19851,-2.92347 -2.76608,-6.74625 -3.4835,-8.49457 -1.93974,-4.72737 -2.44155,-5.95931 -2.60708,-6.40478 -0.15652,-0.42136 -0.60191,-1.54079 -1.52342,-3.82715 -1.96692,-4.88042 -2.22454,-5.53188 -2.60088,-6.57635 -0.48717,-1.35194 -0.68057,-2.2314 -0.64647,-2.944 0.0218,-0.45551 0.0909,-0.72503 0.3328,-1.30018 0.0827,-0.19669 0.10144,-0.26974 0.13074,-0.50591 0.0476,-0.38362 0.10621,-0.63462 0.21549,-0.92294 0.10243,-0.27029 0.20231,-0.46755 0.45269,-0.89711 0.21234,-0.36428 0.35484,-0.62923 0.41134,-0.76429 0.0576,-0.13759 0.12064,-0.41371 0.12764,-0.55811 0.0165,-0.33627 -0.0492,-0.66137 -0.23771,-1.17615 -0.26796,-0.73164 -0.40199,-1.1231 -0.82424,-2.40399 -0.79222,-2.40307 -1.04996,-3.13681 -1.36426,-3.884 -0.2119,-0.50363 -0.32179,-0.72272 -0.58084,-1.15497 -0.15313,-0.25569 -0.26153,-0.42581 -0.31833,-0.49971 -0.34231,-0.44611 -0.58498,-0.67626 -0.96686,-0.91571 -0.46983,-0.29461 -1.01097,-0.49521 -2.0836,-0.77256 -1.2936,-0.3345 -2.43493,-0.5096 -3.33985,-0.5116 -0.34636,-8e-4 -0.99572,0.0404 -1.42471,0.0904 -1.3918,0.16244 -3.0283,0.72468 -4.80023,1.64899 -0.92589,0.48298 -1.95633,1.11802 -2.83445,1.74667 -2.05908,1.47399 -3.54698,2.98906 -4.78576,4.8736 -0.57,0.86707 -1.06272,1.78467 -1.84588,3.437 -0.35109,0.74065 -0.5286,1.09842 -0.6351,1.28106 -0.15953,0.27362 -0.41518,0.53375 -0.8971,0.9126 -0.15706,0.12344 -1.06699,0.80652 -1.15859,0.86972 l -0.0501,0.0346 -0.21859,-0.16795 c -0.78825,-0.60465 -1.38165,-0.99551 -1.97249,-1.30018 -0.9752,-0.50283 -1.9049,-0.73928 -3.09076,-0.78548 -1.41551,-0.0553 -2.94598,0.17432 -5.80585,0.87075 -1.39056,0.3386 -1.79264,0.44652 -1.92443,0.51522 l -0.0894,0.047 -0.016,0.0651 c -0.0286,0.11457 0.0337,0.23578 0.12247,0.23978 0.0628,0.002 0.32928,-0.0592 1.71256,-0.39687 2.40224,-0.5865 3.58699,-0.81374 4.68498,-0.89814 2.03729,-0.15671 3.39432,0.14338 4.86327,1.07487 0.30087,0.19083 0.72241,0.48827 1.09813,0.77566 0.22963,0.17552 0.24874,0.19306 0.23254,0.21446 -0.0277,0.0355 -0.22736,0.18961 -0.47284,0.36484 -0.29505,0.21061 -0.77292,0.55895 -1.17254,0.85524 l -0.26458,0.19637 -0.34365,-0.091 c -1.2685,-0.33489 -2.37858,-0.48407 -3.45405,-0.46457 -0.75071,0.0136 -1.14386,0.0948 -2.3182,0.47852 -0.53808,0.17582 -0.97162,0.30534 -1.23094,0.36794 -1.00376,0.24244 -1.71206,0.21754 -2.37505,-0.0837 l -0.14211,-0.0646 -0.63252,-1.0666 c -0.34808,-0.58662 -0.68455,-1.16379 -0.74775,-1.28261 -0.606,-1.13909 -1.06563,-2.0404 -1.28778,-2.52595 -0.30293,-0.6621 -0.75652,-1.8384 -0.85731,-2.22312 -0.0221,-0.0841 -0.0521,-0.19381 -0.0667,-0.24391 -0.0145,-0.05 -0.0269,-0.11983 -0.0289,-0.15503 -0.003,-0.0757 0.0441,-0.26727 0.12609,-0.50953 0.15302,-0.45169 0.23929,-0.89282 0.25269,-1.29294 0.0115,-0.34462 -0.01,-0.6021 -0.1018,-1.22732 -0.11231,-0.76468 -0.13377,-0.97541 -0.13177,-1.31775 10e-4,-0.29522 0.0149,-0.41187 0.0656,-0.56585 0.19931,-0.60465 0.44115,-1.81773 0.65164,-3.27112 0.1753,-1.21035 0.26452,-2.09122 0.30902,-3.04943 0.028,-0.60122 0.0411,-0.67054 0.20309,-1.08985 0.19033,-0.49266 0.25979,-0.74347 0.29249,-1.05627 0.0441,-0.42203 -0.0145,-1.00836 -0.14521,-1.45056 -0.078,-0.26355 -0.18051,-0.51002 -0.4005,-0.96325 -0.14649,-0.30177 -0.22888,-0.51411 -0.27078,-0.69763 -0.034,-0.1488 -0.0406,-0.21181 -0.0346,-0.34003 l 0.004,-0.0899 0.11679,-0.0796 c 0.18805,-0.12673 1.50623,-0.93286 1.58543,-0.96996 0.11257,-0.0522 0.10861,-0.0555 0.13901,0.12144 0.0721,0.41939 0.19393,0.6503 0.42272,0.80098 0.21472,0.14184 0.54994,0.14506 0.87281,0.008 0.0603,-0.0255 0.43969,-0.24587 1.12551,-0.65319 1.06039,-0.63 1.5514,-0.93823 1.71256,-1.07436 0.25719,-0.21724 0.40999,-0.48399 0.39119,-0.68212 -0.006,-0.0593 -0.0178,-0.0972 -0.0563,-0.16899 -0.0906,-0.16977 -0.23042,-0.28313 -0.58807,-0.47645 -0.10147,-0.0549 -0.19251,-0.11253 -0.20361,-0.12713 -0.0185,-0.0265 -0.0175,-0.028 0.0501,-0.078 0.12307,-0.0906 1.16891,-0.75567 2.05258,-1.30483 0.52845,-0.3276 1.84828,-1.12823 3.41168,-2.06757 2.10961,-1.26751 2.86448,-1.71565 4.37079,-2.59416 4.38808,-2.55983 7.54088,-4.43541 14.96705,-8.90695 3.35046,-2.01735 7.28441,-4.39037 8.74107,-5.27358 10.14804,-6.14919 16.38236,-9.91152 21.28397,-12.84108 1.93235,-1.15496 5.26345,-3.14741 7.40213,-4.42867 3.87419,-2.3204 4.44516,-2.65883 4.63538,-2.74763 0.21715,-0.1014 0.97706,-0.5277 2.6758,-1.50069 0.69988,-0.40094 1.39914,-0.79908 1.55443,-0.88418 z m 4.16513,5.12062 c -0.0103,-0.008 -0.0385,-0.006 -0.0661,0.006 -0.0988,0.0394 -9.17929,5.49039 -17.93586,10.76731 -4.98429,3.0036 -14.14928,8.52167 -20.36671,12.26126 -6.2173,3.73986 -11.30529,6.80441 -11.30629,6.80941 -0.003,0.013 0.11306,0.42338 0.68626,2.4262 0.26086,0.91155 0.64484,2.25707 0.8537,2.99 0.83404,2.92673 1.23226,4.24248 1.3379,4.41834 0.01,0.0165 0.0372,0.0364 0.0605,0.0444 0.0256,0.009 0.0573,0.0334 0.0806,0.0625 0.021,0.0265 0.0471,0.0492 0.0589,0.0512 v 5.1e-4 c 0.0115,0.002 0.0783,-0.0286 0.14831,-0.0672 0.12063,-0.0665 8.36523,-5.10187 20.42098,-12.4721 5.72562,-3.50038 6.86511,-4.19824 8.51111,-5.21467 l 0.99167,-0.61288 0.048,-0.0693 c 0.13334,-0.19323 0.9503,-1.21994 1.76165,-2.21382 1.13907,-1.39529 1.72153,-2.07811 2.44585,-2.86856 2.32591,-2.53824 4.62726,-4.45684 7.82123,-6.51898 1.31332,-0.84792 3.22425,-1.96888 5.80171,-3.40393 0.88558,-0.49336 1.0519,-0.59472 1.1653,-0.70951 0.0932,-0.0944 0.13255,-0.15541 0.22015,-0.34158 0.0819,-0.17402 0.11538,-0.29676 0.10438,-0.38396 -0.0176,-0.14 -0.0513,-0.20438 -0.58342,-1.11363 -0.27653,-0.47276 -0.71904,-1.23657 -0.98341,-1.69705 -1.04602,-1.82225 -1.2136,-2.10476 -1.2764,-2.15026 z m -0.13333,0.49713 0.0801,0.14831 c 0.15107,0.28061 0.73569,1.30973 1.16375,2.04794 0.98276,1.69482 1.13291,1.95796 1.20251,2.10788 0.0831,0.17869 0.10547,0.2763 0.0791,0.3421 -0.0228,0.0567 -0.14551,0.22107 -0.20671,0.27647 -0.0586,0.0518 -0.51446,0.32478 -0.85679,0.51211 -1.4096,0.77153 -4.00192,2.28821 -5.6007,3.27732 -1.14152,0.70627 -1.4383,0.90496 -2.44791,1.63711 -3.63949,2.63935 -5.91844,4.95763 -9.89138,10.06037 l -0.22118,0.2837 -5.99498,3.66386 C 62.55697,79.78 53.76845,85.14553 50.39129,87.20306 h 0.002 c -1.1994,0.73077 -2.79759,1.69894 -3.55017,2.15336 -1.29952,0.78261 -1.36959,0.82355 -1.37459,0.80305 -0.003,-0.0119 -0.0884,-0.29895 -0.18914,-0.6382 -0.45049,-1.51528 -0.729,-2.47966 -1.4764,-5.10667 -0.20092,-0.70634 -0.50459,-1.77106 -0.67437,-2.36626 -0.1698,-0.59518 -0.30817,-1.08272 -0.30748,-1.08572 0.005,-0.0149 3.37083,-2.06199 6.53759,-3.97599 5.39034,-3.25755 34.51886,-20.80657 40.42595,-24.35562 z M 41.57216,81.51194 c -0.067,0.0139 -0.15244,0.0544 -0.3359,0.15761 l -0.21394,0.12041 0.0527,0.11575 c 0.17773,0.38916 0.53563,1.59336 1.57665,5.30872 0.98531,3.51662 1.09071,3.88166 1.19424,4.12275 0.0211,0.0508 0.0473,0.0979 0.0563,0.1049 0.0249,0.0194 0.0873,-0.003 0.26975,-0.0956 0.0899,-0.0457 0.18,-0.0891 0.2005,-0.0971 0.0324,-0.0123 0.0375,-0.0196 0.0377,-0.0579 1e-4,-0.0242 -0.0442,-0.19606 -0.0982,-0.38137 -0.13142,-0.45132 -0.24102,-0.83809 -1.09502,-3.86437 -0.95126,-3.37117 -1.0687,-3.77794 -1.29811,-4.5005 -0.17053,-0.53752 -0.31985,-0.93927 -0.34675,-0.93327 z m 30.45654,0.6475 c -0.0804,0.002 -0.15398,0.009 -0.22014,0.0191 -0.13918,0.0216 -0.63923,0.14906 -1.0511,0.2682 -2.90791,0.8411 -5.65358,2.3062 -8.0884,4.3155 -0.43411,0.3583 -0.51415,0.43352 -0.55035,0.51832 -0.0314,0.0738 -0.0256,0.12599 0.0258,0.23151 0.0473,0.0971 0.1186,0.20423 0.44493,0.66766 0.20097,0.286 0.26021,0.38066 0.91829,1.47226 0.38721,0.64147 0.7383,1.21604 0.7798,1.27744 0.20765,0.30059 0.57299,0.71361 0.95911,1.08314 0.89439,0.85601 1.93047,1.482 3.08715,1.86655 0.38812,0.12903 0.9508,0.2696 1.33377,0.3328 0.67318,0.11108 1.72128,0.0958 2.52491,-0.0367 0.46239,-0.0762 0.75942,-0.15754 1.39888,-0.38293 0.52439,-0.18476 0.5794,-0.20685 0.86972,-0.34416 0.4856,-0.22973 0.66303,-0.27084 0.90744,-0.21084 0.18775,0.0461 0.32572,0.15102 0.43459,0.33125 0.11733,0.19342 0.0946,0.37218 -0.0713,0.56017 -0.0992,0.1121 -0.1814,0.16851 -0.70693,0.48421 -0.67847,0.40749 -0.86413,0.49982 -1.37201,0.68161 -0.56757,0.20312 -1.11409,0.35189 -1.69085,0.45992 -1.17689,0.22039 -2.35086,0.24878 -3.56775,0.0863 -1.23786,-0.16528 -2.68949,-0.81507 -4.47569,-2.00298 -0.49678,-0.33038 -1.59865,-1.10551 -1.94562,-1.36839 -0.0663,-0.0504 -0.16534,-0.11259 -0.22014,-0.13849 -0.12795,-0.0607 -0.47699,-0.14777 -0.58498,-0.14677 -0.18103,0.002 -0.36431,0.0573 -0.76223,0.22945 -0.48688,0.21067 -0.7794,0.31128 -1.5198,0.52141 -0.51484,0.14616 -0.53677,0.15061 -0.98082,0.20361 -0.37249,0.0445 -0.51252,0.0669 -0.7431,0.11989 -0.46977,0.10801 -0.86369,0.27036 -1.17099,0.48214 -0.11518,0.0794 -0.14525,0.10529 -0.17415,0.15089 -0.0193,0.0303 -0.0555,0.0787 -0.0811,0.10801 -0.14996,0.17116 -0.47316,0.66643 -0.53796,0.82475 -0.0526,0.12849 -0.11192,0.37547 -0.20722,0.86352 -0.28018,1.43598 -0.36388,2.38781 -0.27698,3.15226 0.0748,0.65826 0.26041,1.41947 0.52451,2.14922 0.0706,0.19518 0.0924,0.24143 0.22944,0.48938 0.19247,0.34777 0.49175,0.81701 0.75655,1.18597 0.34102,0.47524 0.89055,1.04313 1.4087,1.45624 0.53762,0.42866 1.16628,0.79739 1.70997,1.00304 0.37548,0.14204 1.1868,0.33323 1.63969,0.38603 1.17235,0.13668 3.52454,-0.0705 4.91443,-0.43254 0.28188,-0.0734 0.42236,-0.11955 0.65474,-0.21445 0.11014,-0.0451 0.32164,-0.12033 0.46974,-0.16743 0.40391,-0.12843 0.64456,-0.22776 1.02164,-0.4222 h 5.2e-4 c 0.14738,-0.0757 0.63762,-0.36799 0.75086,-0.44649 0.0248,-0.0174 0.13236,-0.0897 0.23771,-0.16226 0.29253,-0.19935 0.81344,-0.59102 1.4087,-1.05885 0.29555,-0.23227 0.65366,-0.51195 0.79582,-0.62115 0.1421,-0.10927 0.39323,-0.31108 0.55759,-0.44855 0.16428,-0.13755 0.45146,-0.37398 0.63872,-0.52555 0.31428,-0.2544 0.46961,-0.37865 0.98237,-0.78548 0.10354,-0.082 0.30304,-0.24612 0.44338,-0.36484 0.1404,-0.11863 0.31367,-0.25712 0.38447,-0.30902 0.56763,-0.41008 2.22917,-1.78292 2.59571,-2.14458 0.2183,-0.21537 0.51519,-0.53503 0.73226,-0.78858 1.01805,-1.18913 1.8002,-2.69864 2.17557,-4.19767 0.1648,-0.65808 0.23435,-1.24755 0.22635,-1.91978 C 79.95682,89.18252 79.58051,87.90048 78.8567,86.69557 78.42143,85.97098 77.815,85.21983 77.10126,84.52154 76.78609,84.2132 76.4345,83.918 76.11682,83.69472 76.01456,83.62292 75.84035,83.49715 75.72925,83.41515 75.35193,83.13616 74.66462,82.76134 74.23632,82.60125 73.47125,82.31533 72.59126,82.14289 72.0287,82.15941 Z m -31.92622,0.25528 c -0.0482,-9.4e-4 -0.12087,0.0315 -0.25218,0.0966 -0.13632,0.0676 -0.16033,0.0824 -0.18603,0.11731 -0.0338,0.0455 -0.0309,0.10764 0.007,0.17104 0.10707,0.17824 0.56632,1.73728 1.62109,5.50199 0.78864,2.81502 1.07535,3.81365 1.13585,3.95997 0.0269,0.065 0.0391,0.0631 0.24391,-0.0362 l 5.2e-4,5.1e-4 c 0.30898,-0.14988 0.31819,-0.15485 0.31419,-0.17105 -0.002,-0.009 -0.0307,-0.10467 -0.0641,-0.21394 -0.0931,-0.30382 -0.28458,-0.9782 -1.048,-3.69021 -1.22685,-4.35856 -1.50911,-5.31139 -1.66708,-5.63222 -0.0336,-0.0683 -0.0572,-0.10292 -0.10542,-0.10387 z m -1.42058,0.8568 c -0.0492,-0.002 -0.1398,0.0349 -0.31936,0.12609 -0.11416,0.058 -0.16268,0.10551 -0.15968,0.15761 7e-4,0.0151 0.0227,0.0735 0.0486,0.13023 0.059,0.12943 0.12045,0.31367 0.28732,0.86093 0.28331,0.92916 0.58189,1.97069 1.33119,4.64519 0.83626,2.98461 1.06906,3.7954 1.12706,3.92069 0.0243,0.0525 0.0322,0.0619 0.0512,0.0589 0.0124,-0.002 0.10292,-0.0431 0.20102,-0.0904 l -5.2e-4,-5.2e-4 c 0.0979,-0.0476 0.20633,-0.10049 0.24133,-0.11679 0.0349,-0.0163 0.063,-0.0358 0.063,-0.0419 -1e-4,-0.006 -0.0235,-0.0892 -0.0527,-0.185 -0.0885,-0.29136 -0.34131,-1.18245 -1.05885,-3.73208 -1.31414,-4.66991 -1.59,-5.58596 -1.72238,-5.71799 -0.009,-0.009 -0.0208,-0.0142 -0.0372,-0.015 z m -1.44539,0.85835 c -0.0488,0.004 -0.20917,0.0762 -0.3359,0.14882 l -0.10904,0.0636 -0.01,0.0496 c -0.008,0.0408 -0.002,0.0633 0.0279,0.12557 0.0528,0.1077 0.085,0.20312 0.24908,0.73277 0.28249,0.91162 0.60947,2.05 1.40922,4.90461 0.34,1.21366 0.74274,2.64005 0.91002,3.22358 0.0677,0.23653 0.16513,0.54549 0.18913,0.60099 l 0.0248,0.0584 0.063,-0.0227 c 0.0346,-0.0125 0.13171,-0.0572 0.21601,-0.0997 h 10e-4 c 0.0843,-0.0424 0.17656,-0.0883 0.20516,-0.10076 l 0.0512,-0.0243 -0.047,-0.15348 c -0.0775,-0.25353 -0.33277,-1.15358 -1.079,-3.80287 -1.28886,-4.57609 -1.51634,-5.33945 -1.6707,-5.60224 -0.0599,-0.10229 -0.0622,-0.1048 -0.0951,-0.1018 z m -1.42989,0.86299 c -0.0484,-8.2e-4 -0.12102,0.0321 -0.25322,0.0977 -0.14672,0.0731 -0.15973,0.0815 -0.18603,0.12196 -0.033,0.0509 -0.0269,0.0885 0.0398,0.23874 0.13844,0.31198 0.57826,1.81471 1.62677,5.55677 0.76601,2.73399 1.03978,3.68756 1.09968,3.83232 0.0269,0.065 0.0395,0.0631 0.24443,-0.0362 l -5.2e-4,-5.2e-4 c 0.30894,-0.14986 0.31819,-0.15433 0.31419,-0.17053 -0.002,-0.009 -0.0307,-0.10467 -0.0641,-0.21394 -0.0873,-0.28451 -0.24319,-0.83359 -1.04128,-3.66748 -1.24519,-4.42136 -1.51381,-5.32894 -1.6738,-5.65547 -0.0335,-0.0683 -0.0575,-0.10253 -0.10594,-0.10335 z m -1.46451,0.87953 c -0.0482,-1.2e-4 -0.12229,0.0332 -0.25787,0.10026 -0.14383,0.0715 -0.15715,0.0804 -0.18345,0.12092 -0.033,0.0509 -0.027,0.0885 0.0398,0.23875 0.13842,0.31198 0.5788,1.81469 1.62729,5.55676 0.76605,2.73397 1.03926,3.68757 1.09916,3.83233 0.0269,0.065 0.0395,0.0631 0.24443,-0.0362 v -0.001 c 0.30903,-0.1498 0.31768,-0.15433 0.31368,-0.17053 -0.002,-0.008 -0.0306,-0.10473 -0.0641,-0.21394 -0.0873,-0.28452 -0.24317,-0.83362 -1.04128,-3.66748 -1.24518,-4.42134 -1.50987,-5.31665 -1.67432,-5.65857 -0.0326,-0.0676 -0.0551,-0.10116 -0.10335,-0.10129 z m -1.4087,0.86093 c -0.0316,-0.0108 -0.0735,0.005 -0.14986,0.0382 -0.25281,0.11103 -0.33755,0.16975 -0.34055,0.23565 -7e-4,0.018 0.0202,0.0795 0.0465,0.13694 0.0597,0.13079 0.12057,0.31326 0.28784,0.86196 0.283,0.92803 0.59923,2.03085 1.34875,4.70618 0.21245,0.75823 0.49508,1.76191 0.62787,2.23087 0.45503,1.60643 0.48305,1.69623 0.53485,1.68723 0.0115,-0.002 0.10086,-0.0426 0.19896,-0.0899 v -5.2e-4 c 0.098,-0.0475 0.20642,-0.10049 0.24132,-0.11679 0.0349,-0.0163 0.0631,-0.0359 0.0631,-0.0419 -10e-5,-0.006 -0.0235,-0.0892 -0.0527,-0.185 -0.0872,-0.2872 -0.33667,-1.1663 -1.05885,-3.73207 -1.19497,-4.24563 -1.50554,-5.2965 -1.65933,-5.61154 -0.0349,-0.0715 -0.0562,-0.10856 -0.0879,-0.11938 z m -19.03553,0.51263 c 0.17378,-0.0149 0.366,0.0416 0.51263,0.15038 0.0954,0.0711 0.11564,0.0788 0.19534,0.078 0.0939,-8e-4 0.27436,0.0669 0.41031,0.154 0.11491,0.0734 0.19933,0.1776 0.48731,0.60203 0.31473,0.46404 0.34388,0.49148 0.77773,0.73381 0.51416,0.28716 0.5867,0.34774 0.5395,0.44855 -0.0293,0.0625 -0.1306,0.17367 -0.25838,0.28473 -0.14242,0.12381 -0.22446,0.18217 -0.55449,0.39326 -0.37536,0.24007 -1.76115,1.06194 -1.96526,1.16531 -0.24666,0.12489 -0.39171,0.16559 -0.5302,0.14779 -0.10141,-0.0131 -0.17067,-0.0421 -0.21187,-0.0889 -0.0772,-0.0876 -0.1373,-0.29749 -0.1571,-0.54829 -0.014,-0.17725 -0.009,-0.24986 0.0279,-0.39377 0.0199,-0.0765 0.0304,-0.15856 0.0274,-0.22376 -0.003,-0.0664 0.003,-0.11341 0.016,-0.13281 0.0112,-0.0162 0.0662,-0.066 0.12195,-0.11111 0.26115,-0.2103 0.31995,-0.27545 0.32195,-0.35605 0.003,-0.14095 -0.0833,-0.32938 -0.46147,-1.00614 -0.15908,-0.28463 -0.30266,-0.54961 -0.31936,-0.58911 -0.0384,-0.0917 -0.037,-0.13293 0.007,-0.17363 0.0186,-0.0181 0.19734,-0.12961 0.39636,-0.24856 0.39685,-0.23677 0.47633,-0.27368 0.61702,-0.28578 z m 17.57619,0.34365 c -0.049,0.005 -0.20928,0.077 -0.33538,0.14935 l -0.10904,0.063 -0.0103,0.0527 c -0.007,0.0381 -0.004,0.0631 0.0134,0.0915 0.0436,0.0728 0.10368,0.24563 0.25735,0.73949 0.26752,0.85951 0.57273,1.92122 1.38544,4.81934 0.84387,3.00938 1.07125,3.80093 1.12965,3.93413 l 0.0258,0.0584 0.063,-0.0227 c 0.0346,-0.0124 0.13171,-0.0572 0.21601,-0.0997 v 5.2e-4 c 0.0843,-0.0424 0.17604,-0.0888 0.20464,-0.10129 l 0.0517,-0.0238 -0.047,-0.15399 c -0.0822,-0.26925 -0.35163,-1.21832 -1.079,-3.80236 -1.28938,-4.58047 -1.5375,-5.41081 -1.68414,-5.63376 -0.0444,-0.0677 -0.0516,-0.0738 -0.0822,-0.0708 z m -1.42576,0.86145 c -0.0475,-5.4e-4 -0.11984,0.0322 -0.25269,0.0977 -0.22875,0.11274 -0.24597,0.14343 -0.17157,0.30592 0.0611,0.13325 0.10846,0.27429 0.2651,0.786 0.28437,0.92891 0.59218,2.00322 1.36478,4.75992 0.78909,2.81563 1.05859,3.75391 1.11879,3.8995 0.0269,0.0651 0.039,0.0631 0.24391,-0.0362 v -5.2e-4 c 0.30904,-0.1498 0.3182,-0.15485 0.3142,-0.17105 -0.002,-0.009 -0.0307,-0.10447 -0.0641,-0.21342 -0.0921,-0.30083 -0.2682,-0.92116 -1.04077,-3.66541 -1.23625,-4.39146 -1.51057,-5.31818 -1.67535,-5.66064 -0.0325,-0.0673 -0.0548,-0.10126 -0.10232,-0.1018 z m -1.4366,0.58136 c -0.10034,0.009 -0.46967,0.2081 -1.94303,1.04593 l -0.71727,0.40773 -0.0692,0.006 c -0.0381,0.003 -0.12604,-0.005 -0.19534,-0.0171 -0.3481,-0.0625 -0.39945,-0.0641 -0.58911,-0.0207 -0.32929,0.0753 -0.77968,0.27042 -2.50527,1.08366 -3.02428,1.42533 -3.74083,1.79031 -5.00383,2.5492 -0.87706,0.52699 -1.19389,0.75299 -1.58027,1.12758 -0.50526,0.48984 -0.7961,0.92543 -1.01854,1.526 -0.0759,0.20499 -0.19037,0.62379 -0.19637,0.71779 -0.009,0.13998 0.0196,0.35266 0.11421,0.86144 0.073,0.39226 0.15638,0.71333 0.25218,0.97462 0.12066,0.32845 0.2927,0.63017 0.49144,0.86041 0.60562,0.70129 1.30274,1.06721 2.49132,1.30793 0.19437,0.0394 1.57965,0.2695 1.94717,0.3235 1.01103,0.14864 2.08471,0.12418 3.31866,-0.0754 1.4532,-0.23511 2.72469,-0.59762 3.75998,-1.07228 0.50698,-0.23246 1.00056,-0.52902 1.3565,-0.81494 1.68167,-1.35119 1.65593,-3.11656 -0.0935,-6.4425 -0.283,-0.53792 -0.47453,-0.87439 -1.07487,-1.88929 l -0.59686,-1.00873 0.12557,-0.0661 c 0.36194,-0.19106 0.64465,-0.34793 1.0759,-0.59532 0.46675,-0.26825 0.53753,-0.30326 0.55553,-0.27336 0.0374,0.0623 2.09713,7.55447 2.47426,9.00048 l 0.0171,0.0667 -2.16215,1.28985 c -1.18929,0.70942 -3.54533,2.11007 -5.23585,3.11299 -3.92034,2.3255 -11.17987,6.6801 -11.46287,6.87554 -0.21052,0.14524 -0.29573,0.21495 -0.32763,0.26665 -0.0174,0.0281 -0.0161,0.0386 0.007,0.0765 0.0352,0.058 0.1058,0.10507 0.1633,0.11007 0.0443,0.003 0.0607,-0.005 0.41134,-0.20257 0.60144,-0.33948 2.74761,-1.60899 6.99596,-4.13877 4.44763,-2.64844 7.4422,-4.42758 9.61647,-5.71283 0.78952,-0.4667 1.65038,-0.973 1.91202,-1.12551 l 0.47594,-0.27699 0.0124,-0.0785 c 0.0161,-0.10178 0.007,-0.16618 -0.0656,-0.47645 -0.12447,-0.53044 -0.2704,-1.07362 -1.23042,-4.57698 -0.81301,-2.96691 -0.9936,-3.61981 -1.09761,-3.96617 -0.19665,-0.65421 -0.26104,-0.77346 -0.40824,-0.76016 z m 19.36006,0.62012 -0.92553,0.54673 c -3.20743,1.89483 -15.56161,9.29149 -15.9861,9.57099 l -0.21394,0.14056 -0.0124,0.0491 c -0.0116,0.0457 -0.008,0.0529 0.03,0.10852 0.0513,0.0729 0.12614,0.1061 0.20154,0.0894 0.0989,-0.0218 0.61322,-0.32198 3.56567,-2.08205 2.72895,-1.62695 3.90075,-2.32101 6.00635,-3.55637 0.38419,-0.22554 0.70142,-0.40766 0.70642,-0.40566 0.009,0.004 0.36611,0.65828 0.42581,0.77877 0.32817,0.66178 0.42032,0.85463 0.77567,1.62212 0.43356,0.93653 0.64822,1.36018 0.91984,1.81333 0.32161,0.53756 0.50461,0.74264 0.80667,0.9033 0.11533,0.0614 0.32869,0.11592 0.47284,0.12092 0.13276,0.005 0.35116,-0.0129 0.48265,-0.0393 h 5.2e-4 c 0.11731,-0.0235 0.0493,0.0183 1.41748,-0.87178 0.59468,-0.3868 1.87568,-1.217 2.84686,-1.84485 l 1.76578,-1.14153 0.22014,-0.24547 c 0.324,-0.36151 0.38599,-0.46496 0.44339,-0.73949 0.0566,-0.27082 0.0169,-0.41002 -0.23565,-0.83044 -0.34068,-0.56657 -0.80741,-1.11512 -2.17971,-2.56056 -1.1226,-1.18245 -1.293,-1.34637 -1.45056,-1.39837 z m 0.0568,0.49351 c 0.0281,0.007 0.5092,0.50448 1.32757,1.37201 1.33158,1.41135 1.74999,1.90813 2.02417,2.40398 0.0581,0.10535 0.11074,0.21492 0.12454,0.25942 0.0496,0.15894 0.0297,0.2862 -0.0672,0.43305 -0.17604,0.26682 -0.40698,0.45801 -1.20561,0.99529 -0.62489,0.42038 -3.04231,1.98468 -4.12585,2.67012 l -5.2e-4,5.1e-4 c -0.42166,0.26659 -0.94176,0.57236 -1.07332,0.63046 -0.11772,0.052 -0.24243,0.0565 -0.41393,0.0145 C 44.367,98.86378 44.21525,98.73584 43.96678,98.37503 43.74809,98.05748 43.4869,97.54886 42.95444,96.40409 42.40567,95.22435 42.19931,94.8102 41.79637,94.08175 l -0.11058,-0.20102 2.36884,-1.42213 c 2.43764,-1.46351 3.73278,-2.22754 3.87367,-2.28514 0.0441,-0.0185 0.0888,-0.0314 0.10025,-0.0274 z m -21.61728,0.5643 0.66559,1.1219 c 0.36649,0.61668 0.71955,1.22085 0.78445,1.34255 0.22125,0.41629 0.33402,0.63309 0.43821,0.84129 0.90121,1.80257 1.2091,3.07046 0.97566,4.01888 -0.0901,0.36597 -0.24008,0.66074 -0.49196,0.96635 -0.16477,0.19997 -0.41864,0.44057 -0.62426,0.59221 -0.21853,0.16078 -0.84523,0.51638 -1.23765,0.70177 -0.46983,0.22199 -1.25554,0.49002 -1.98127,0.67592 -1.63862,0.41977 -3.33475,0.59095 -4.49585,0.45321 -0.2148,-0.0255 -0.37829,-0.0523 -0.75034,-0.12248 -0.1945,-0.0367 -0.55446,-0.0964 -0.79944,-0.13229 -0.24497,-0.0359 -0.55371,-0.0848 -0.68626,-0.10903 -0.41277,-0.0753 -0.98283,-0.24216 -0.93173,-0.27286 0.003,-0.002 0.13257,0.003 0.28733,0.01 0.3363,0.0163 0.46893,0.0142 0.76016,-0.0129 0.77465,-0.0721 1.44025,-0.27471 2.27479,-0.69298 0.23548,-0.118 0.99231,-0.57269 1.24644,-0.74879 0.80605,-0.55851 1.54989,-1.15774 2.37711,-1.91513 1.41859,-1.29881 2.2068,-2.31981 2.54403,-3.29385 0.27677,-0.79934 0.32103,-1.56093 0.12765,-2.20039 -0.0922,-0.30431 -0.27398,-0.64269 -0.50592,-0.93947 -0.0649,-0.0833 -0.12047,-0.1609 -0.12247,-0.1726 -0.003,-0.0171 0.0114,-0.0302 0.0713,-0.0661 z m -1.1095,0.13384 c 0.27556,-0.0172 0.51162,0.11125 0.74673,0.39791 0.23296,0.28409 0.43949,0.68709 0.50229,0.98134 0.17943,0.84078 -0.0939,1.92182 -0.71158,2.81688 -0.87239,1.26438 -2.74521,2.98813 -4.48965,4.13205 v -5.2e-4 c -0.0393,0.0259 -0.19161,0.11981 -0.33745,0.20981 -1.25786,0.76838 -2.26476,1.05649 -3.47834,0.99529 -0.43046,-0.0217 -1.11554,-0.12297 -1.24385,-0.18397 -0.12423,-0.0592 -0.24125,-0.18611 -0.4284,-0.46561 -0.17921,-0.26784 -0.30159,-0.51394 -0.38809,-0.77876 -0.13622,-0.4169 -0.27254,-1.27864 -0.24494,-1.55029 0.0111,-0.10861 0.0838,-0.3614 0.15916,-0.55449 0.18422,-0.47141 0.43664,-0.85514 0.80977,-1.23042 0.72196,-0.72609 1.91934,-1.45712 4.29638,-2.62309 1.42127,-0.69715 4.04954,-1.90789 4.51755,-2.08101 0.10194,-0.0377 0.19857,-0.0594 0.29042,-0.0651 z m -0.60306,1.06867 c -0.12249,-8.6e-4 -0.23945,0.029 -0.35863,0.0904 -0.16531,0.0851 -0.28669,0.21827 -0.36019,0.39532 -0.0593,0.14282 -0.0635,0.33003 -0.0119,0.50695 0.0297,0.10142 0.12408,0.25869 0.19998,0.33279 0.20422,0.19953 0.47112,0.26599 0.74363,0.18449 0.26283,-0.0786 0.47447,-0.29545 0.54157,-0.55449 0.0487,-0.18834 0.0146,-0.37844 -0.10232,-0.57309 -0.13726,-0.2285 -0.28296,-0.33115 -0.52762,-0.37155 -0.0424,-0.007 -0.0837,-0.0106 -0.12454,-0.0109 z m 25.09149,1.30483 c -0.0537,0.002 -0.0753,0.0103 -0.22789,0.0961 -0.19442,0.10921 -0.63912,0.39355 -1.77405,1.13482 -2.36176,1.54239 -3.41102,2.24451 -3.55224,2.37659 -0.0817,0.0765 -0.0768,0.21068 0.0119,0.31058 0.0839,0.0945 0.16066,0.10971 0.27957,0.0558 0.18952,-0.0859 0.85298,-0.51392 3.69125,-2.38228 1.44779,-0.95305 1.72422,-1.14947 1.79782,-1.27641 0.0387,-0.0676 0.0341,-0.1017 -0.0274,-0.1943 -0.0623,-0.093 -0.11206,-0.12393 -0.19896,-0.12093 z m 0.63614,0.46147 c -0.10538,0.0146 -0.45443,0.23378 -2.24586,1.41025 -3.57907,2.35044 -3.87759,2.55688 -3.90519,2.697 -0.005,0.0267 0.004,0.0494 0.0419,0.11317 0.0801,0.13228 0.18564,0.18466 0.28887,0.14366 v -5.2e-4 c 0.16734,-0.0664 0.73295,-0.43261 3.98374,-2.57969 2.03888,-1.34663 2.16123,-1.44015 2.09393,-1.60093 -0.0529,-0.1265 -0.15229,-0.19744 -0.25735,-0.18294 z m 0.30179,0.77308 c -0.0337,-0.01 -0.069,-0.01 -0.10284,0.001 -0.12071,0.0391 -0.68087,0.39943 -2.17764,1.40146 -1.00265,0.67114 -1.98807,1.32512 -2.49701,1.65675 -0.68515,0.44646 -0.89652,0.58837 -0.93172,0.62477 -0.0836,0.0868 -0.0324,0.3098 0.0832,0.3638 0.0646,0.0302 0.12879,0.0299 0.21239,-0.001 0.0725,-0.027 0.68833,-0.38257 0.94412,-0.54673 0.95033,-0.60698 3.75797,-2.49639 4.32894,-2.913 0.29654,-0.21641 0.32001,-0.2401 0.32401,-0.3297 0.005,-0.11914 -0.0823,-0.22867 -0.18345,-0.25735 z M 9.67794,96.65882 c 0.068,0.005 0.14234,0.0141 0.22324,0.0289 0.2863,0.0524 0.85896,0.26728 0.90176,0.33848 0.0203,0.0339 0.034,0.20975 0.032,0.39532 -0.007,0.5751 -0.0953,1.48814 -0.26614,2.76314 -0.24363,1.81894 -0.47981,3.00243 -0.73845,3.70003 l 0.001,-5.1e-4 c -0.0244,0.0658 -0.0504,0.12419 -0.0594,0.12919 -0.031,0.0186 -0.64654,-0.11961 -0.92087,-0.20671 -0.88071,-0.2797 -1.49031,-0.74287 -1.91978,-1.45779 -0.0553,-0.0922 -0.10669,-0.18908 -0.11369,-0.21498 -0.008,-0.0293 -0.005,-0.087 0.009,-0.15244 0.0417,-0.19733 -0.003,-0.34361 -0.12764,-0.41961 -0.0324,-0.0197 -0.0876,-0.0531 -0.12248,-0.0744 -0.1237,-0.0754 -0.191,-0.22647 -0.185,-0.41341 0.003,-0.0795 0.009,-0.0969 0.062,-0.17622 0.1123,-0.16865 0.11112,-0.20757 -0.0103,-0.42994 -0.10053,-0.18394 -0.12227,-0.25988 -0.12144,-0.42375 6e-4,-0.10746 0.0339,-0.26954 0.0646,-0.31574 0.0136,-0.0206 0.0744,-0.0726 0.13436,-0.11679 0.20954,-0.15171 0.23199,-0.25414 0.10542,-0.48679 -0.0513,-0.0949 -0.0577,-0.11199 -0.0537,-0.16589 0.006,-0.0784 0.0654,-0.25052 0.11265,-0.32452 0.0575,-0.0901 0.10685,-0.11351 0.2744,-0.12971 0.0777,-0.007 0.15454,-0.021 0.17054,-0.031 0.0425,-0.0256 0.097,-0.11908 0.1111,-0.19068 0.012,-0.061 0.006,-0.12852 -0.0284,-0.33642 l -0.017,-0.10387 0.0605,-0.0543 c 0.0862,-0.078 0.31872,-0.23029 0.36432,-0.24029 0.0206,-0.004 0.0844,-0.003 0.14211,0.002 0.0577,0.005 0.12999,0.004 0.16019,-0.002 0.0617,-0.0128 0.14529,-0.0592 0.17519,-0.0972 0.0345,-0.0438 0.0557,-0.1341 0.0517,-0.21859 -0.005,-0.10028 0.0193,-0.15264 0.0987,-0.21084 0.12997,-0.095 0.33455,-0.12355 0.61134,-0.0847 0.2647,0.0371 0.28162,0.0334 0.32142,-0.0796 0.0139,-0.0394 0.0396,-0.0857 0.0579,-0.10128 0.0886,-0.0787 0.23518,-0.11077 0.43925,-0.0971 z m 34.33847,3.31504 c 0.2169,-0.003 0.43464,6e-5 0.65474,0.0109 0.73027,0.0358 1.30831,0.12296 2.25671,0.33952 0.48148,0.1099 0.51615,0.11993 0.57155,0.16433 0.0324,0.0261 0.21368,0.16917 0.40256,0.31832 0.81197,0.64079 1.16334,0.97964 1.55804,1.50172 0.15639,0.20695 0.55128,0.84321 0.67851,1.09347 0.37211,0.73188 0.63989,1.51491 0.85008,2.48616 0.19379,0.8953 0.18,1.05497 -0.16175,1.90014 -0.74419,1.84027 -1.54525,2.83647 -3.12642,3.88813 -2.14528,1.42692 -7.54833,3.10704 -11.54503,3.58997 -0.38009,0.0459 -1.11708,0.10769 -1.43144,0.11989 -1.42597,0.0553 -2.35821,-0.14106 -3.15898,-0.6656 -0.21269,-0.13931 -0.35853,-0.25482 -0.6258,-0.49557 -0.23664,-0.21322 -0.39629,-0.32753 -0.47439,-0.34003 -0.0853,-0.0137 -0.14093,0.04 -0.16433,0.15916 -0.0225,0.11478 0.005,0.1537 0.3116,0.44028 0.24563,0.22983 0.41455,0.37122 0.601,0.50333 0.62244,0.44116 1.3036,0.68098 2.20814,0.77618 0.57722,0.0606 1.15732,0.059 1.93993,-0.005 3.28352,-0.2691 8.19609,-1.56341 11.05049,-2.91145 1.08439,-0.51217 1.98663,-1.08574 2.65048,-1.68517 0.90308,-0.81549 1.45791,-1.62238 2.04277,-2.96984 0.27323,-0.62946 0.4037,-1.02182 0.416,-1.2516 0.0414,-0.77606 -0.39127,-2.42217 -0.95602,-3.63596 -0.30483,-0.65518 -0.86165,-1.41984 -1.4857,-2.04173 -0.10157,-0.10125 -0.40077,-0.37328 -0.52761,-0.47956 -0.0313,-0.0263 -0.0531,-0.0502 -0.0481,-0.0532 0.0116,-0.007 0.22156,0.0717 0.42064,0.15762 0.40971,0.17691 0.75749,0.39522 1.02992,0.64595 0.56647,0.52136 1.0309,1.38152 1.63814,3.03496 0.23225,0.63236 0.41608,1.1723 0.92811,2.728 0.32024,0.97309 0.4895,1.47274 0.74052,2.18539 0.28099,0.79765 0.32357,0.94338 0.34107,1.15911 0.0122,0.14986 -4.8e-4,0.27405 -0.0455,0.43873 -0.065,0.23784 -0.14793,0.41 -0.41703,0.8661 -0.45007,0.76284 -0.59477,1.13759 -0.7152,1.85518 -0.0498,0.29668 -0.0926,0.44897 -0.23668,0.84284 -0.30041,0.82085 -0.34016,1.41073 -0.15658,2.32544 0.22559,1.12387 0.55923,2.02672 2.79828,7.57628 1.04545,2.59124 1.48627,3.6925 1.62884,4.06694 0.24453,0.6425 0.30845,0.80582 0.55604,1.41955 0.49596,1.22946 1.53513,3.76917 4.38578,10.72079 3.78107,9.21983 3.62551,8.83648 3.58531,8.87698 -0.0119,0.0118 -0.15813,0.11629 -0.32556,0.23203 -0.32266,0.22299 -0.37444,0.26123 -0.44804,0.32763 -0.15436,0.13881 -1.11756,0.82064 -1.79989,1.27485 -0.48981,0.3304 -2.54159,1.56801 -3.22564,1.94976 -0.54137,0.30258 -1.96231,1.08697 -2.85771,1.57819 -1.47442,0.80872 -2.17255,1.20258 -3.03599,1.70843 l -0.61753,0.35966 -0.0734,0.19896 c -0.0403,0.10937 -0.0919,0.23692 -0.11421,0.28422 -0.11241,0.23435 -0.2907,0.44133 -0.58756,0.68264 v -0.001 c -0.15129,0.12355 -0.12627,0.10747 -0.29817,0.19327 -0.83756,0.41903 -1.53398,0.55419 -2.15491,0.41858 -0.11563,-0.0253 -0.36298,-0.10653 -0.55655,-0.18293 -0.0535,-0.0214 -0.0973,-0.0303 -0.10904,-0.0233 -0.0108,0.007 -0.0603,0.006 -0.11007,0 -0.22949,-0.0292 -0.51011,0.0352 -0.90485,0.20929 -0.43159,0.18998 -0.8002,0.3235 -1.57562,0.56999 -0.76435,0.24288 -1.17734,0.38816 -1.55288,0.54726 -0.53468,0.22612 -1.99451,0.76343 -2.20555,0.81183 -0.11692,0.0272 -0.17344,0.0261 -0.34209,-0.005 -0.0727,-0.0135 -0.1811,-0.0313 -0.2403,-0.0403 -0.14402,-0.0211 -0.24305,-0.0629 -0.42064,-0.17777 -0.27103,-0.17537 -0.90375,-0.64006 -1.02475,-0.75293 -0.0307,-0.0286 -0.13343,-0.11425 -0.22893,-0.18965 -0.22689,-0.17953 -0.30857,-0.25584 -0.62993,-0.59169 -0.59361,-0.62036 -0.88666,-0.94447 -1.3162,-1.45418 -0.58951,-0.69949 -0.71781,-0.87615 -1.25212,-1.72754 -0.60556,-0.96475 -1.07956,-1.77521 -1.32963,-2.27325 -0.86142,-1.7159 -1.57148,-3.44748 -2.71302,-6.61561 -0.57096,-1.58475 -0.81843,-2.31908 -1.15962,-3.43804 -0.62294,-2.04329 -1.18162,-4.16862 -1.85518,-7.05848 -0.20637,-0.88551 -0.83293,-3.69086 -0.93173,-4.17184 -0.41116,-2.00049 -0.76635,-4.372 -1.06763,-7.1267 -0.0892,-0.81539 -0.18674,-1.65211 -0.22944,-1.96835 -0.14496,-1.0744 -0.33699,-1.9319 -0.59377,-2.6541 -0.12022,-0.33799 -0.14427,-0.38911 -0.39687,-0.82321 -0.42618,-0.73298 -0.70075,-1.11493 -0.97204,-1.35289 -0.0562,-0.0493 -0.16891,-0.15556 -0.25011,-0.23616 -0.17482,-0.17351 -0.2723,-0.2549 -0.52141,-0.43305 -0.21124,-0.15102 -0.34772,-0.26051 -0.55036,-0.44286 -0.21444,-0.19279 -0.52844,-0.50936 -0.56844,-0.57206 -0.0305,-0.0482 -0.0338,-0.0624 -0.0248,-0.10594 0.006,-0.0276 0.0254,-0.071 0.0429,-0.0961 0.0784,-0.1132 0.43542,-0.38377 1.71772,-1.30121 1.70365,-1.21892 2.03367,-1.47379 2.37143,-1.83141 0.31128,-0.3296 0.48021,-0.62901 1.15187,-2.04329 0.69106,-1.4551 1.04718,-2.11963 1.5875,-2.96209 0.96399,-1.503 2.04264,-2.72836 3.41685,-3.88039 0.942,-0.78975 1.8712,-1.44862 2.98328,-2.11666 0.78959,-0.47432 1.42488,-0.81056 2.16834,-1.14774 1.77949,-0.80699 3.24523,-1.18179 4.76353,-1.20509 z m 14.49214,7.09362 c -0.18067,0.008 -0.35894,0.0637 -0.51469,0.1695 -0.16403,0.11141 -0.26382,0.22866 -0.35192,0.41341 -0.1075,0.22547 -0.12466,0.48147 -0.0481,0.72916 0.0376,0.1214 0.16243,0.32179 0.25683,0.41289 0.25813,0.24914 0.6403,0.3532 0.96377,0.262 0.0837,-0.0235 0.35724,-0.17332 0.42374,-0.23202 0.23887,-0.21104 0.34393,-0.47862 0.33073,-0.8413 -0.008,-0.20736 -0.0956,-0.42527 -0.23047,-0.5705 -0.2212,-0.23828 -0.52881,-0.35678 -0.82993,-0.34314 z m -8.65373,6.62389 c -0.15739,-0.009 -0.35205,0.0166 -0.6258,0.0744 -0.3062,0.0646 -0.26102,0.0436 -1.05989,0.50075 -1.19899,0.68628 -2.03861,1.11304 -3.00653,1.52807 -1.20848,0.51816 -2.54472,0.9334 -4.23592,1.3162 -2.53975,0.57497 -4.75988,0.82391 -7.01353,0.78651 -0.75436,-0.0125 -1.24254,-0.0555 -1.73271,-0.15244 -0.62846,-0.12431 -0.73294,-0.13764 -1.03352,-0.12764 -0.26352,0.009 -0.51911,0.0521 -0.74001,0.12505 -0.0975,0.0315 -0.14884,0.0578 -0.30541,0.15193 -0.16544,0.0993 -0.19696,0.12229 -0.25786,0.18759 -0.24092,0.25836 -0.32604,0.57418 -0.29094,1.08159 0.0348,0.50474 0.19323,1.13818 0.56637,2.26136 0.0682,0.20562 0.10913,0.34752 0.11007,0.38292 0.003,0.13322 0.21994,3.02579 0.26304,3.51193 0.34816,3.9265 0.80461,6.88057 1.57768,10.21488 0.92049,3.96982 1.93928,7.10564 3.49436,10.75542 0.42927,1.00742 1.18784,2.68247 1.9451,4.29431 0.25788,0.54886 0.28624,0.62047 0.30024,0.76377 0.008,0.082 0.0162,0.10936 0.0408,0.14056 0.0416,0.0522 0.0842,0.0702 0.15348,0.0661 0.0828,-0.005 0.28206,-0.11987 0.64906,-0.37207 0.52336,-0.35977 1.16199,-0.73175 1.62109,-0.94361 1.16883,-0.53947 2.23311,-0.65766 3.37498,-0.37517 0.32467,0.0803 0.46263,0.12762 0.78394,0.27027 0.90008,0.39955 1.57222,0.94902 2.41277,1.97145 0.51404,0.6253 0.76171,0.99923 1.89446,2.86236 l 0.79271,1.3038 0.0698,0.006 c 0.0383,0.003 0.0818,0.005 0.0966,0.004 0.0782,-0.004 0.67705,-0.34594 4.15427,-2.37143 1.0833,-0.63104 3.29832,-1.91968 4.92218,-2.86391 v 5.2e-4 c 2.93045,-1.70402 3.43074,-1.99908 3.54294,-2.08618 0.0773,-0.06 0.18271,-0.18595 0.22841,-0.27285 0.13661,-0.25983 0.11062,-0.67617 -0.0822,-1.31878 -0.18277,-0.60934 -0.3908,-1.15463 -1.16117,-3.04013 -0.24234,-0.59306 -0.51021,-1.25288 -0.59531,-1.46658 -0.64037,-1.6094 -0.91981,-2.30224 -2.68459,-6.65127 -2.05231,-5.05743 -2.66472,-6.61545 -3.11299,-7.922 -0.53579,-1.56155 -0.83886,-2.31529 -2.59157,-6.43888 -1.08273,-2.54737 -1.39965,-3.4562 -1.45625,-4.17804 -0.0222,-0.28254 -0.0178,-0.39391 0.0357,-0.92656 0.0209,-0.20855 0.0415,-0.45862 0.0465,-0.55552 0.0427,-0.88115 -0.0797,-1.52802 -0.38602,-2.03398 -0.10446,-0.17292 -0.16983,-0.24465 -0.30283,-0.33125 -0.12387,-0.0807 -0.24413,-0.12476 -0.40152,-0.13384 z m -0.0507,0.41703 c 0.0563,0.004 0.10552,0.0129 0.1447,0.0269 0.0893,0.0319 0.15369,0.0797 0.22479,0.16795 0.16432,0.20352 0.28575,0.61496 0.34055,1.15548 0.0326,0.32121 0.0273,0.72061 -0.015,1.15652 -0.0678,0.69949 -0.073,0.94423 -0.0284,1.29295 0.048,0.37563 0.24106,1.037 0.51676,1.77043 0.19031,0.50628 0.64042,1.597 1.36478,3.30626 1.36658,3.22456 1.73676,4.15421 2.2164,5.5671 0.25798,0.75981 0.3695,1.05753 0.9617,2.55798 0.53375,1.35225 1.33328,3.34077 2.45308,6.10196 1.29943,3.20412 1.60649,3.96397 1.93632,4.78782 0.49323,1.23207 0.62672,1.56227 1.05678,2.61483 0.60181,1.47283 0.81486,2.02261 0.99839,2.57865 0.19691,0.59659 0.26637,0.95669 0.23047,1.19631 -0.0179,0.11957 -0.0317,0.13961 -0.16019,0.23461 -0.19205,0.14208 -1.01394,0.62788 -4.82813,2.85254 -2.08075,1.21368 -5.18847,3.02139 -6.37429,3.7083 -0.70202,0.40667 -1.03268,0.59255 -1.06608,0.60255 -0.0479,0.0132 -0.0743,-0.0282 -0.50592,-0.75448 -0.54974,-0.92679 -0.80714,-1.3463 -1.08779,-1.77095 -1.35685,-2.05387 -2.39506,-3.0404 -3.77754,-3.58893 -0.39447,-0.15648 -0.90725,-0.28429 -1.33532,-0.33279 -0.94559,-0.10696 -1.94386,0.0536 -2.84634,0.45785 -0.30449,0.13719 -0.49419,0.24301 -1.2609,0.70125 -0.42677,0.25556 -0.7816,0.46254 -0.7953,0.46354 -0.0224,0.002 -0.0289,-0.007 -0.0625,-0.0765 -0.27496,-0.57321 -1.29236,-2.784 -1.61334,-3.50572 -1.45134,-3.26379 -2.4494,-6.00236 -3.27577,-8.98757 -0.64067,-2.31429 -1.26194,-5.13649 -1.62264,-7.37061 -0.33764,-2.0913 -0.53036,-3.83457 -0.82579,-7.47138 -0.0662,-0.81472 -0.13636,-1.62647 -0.15606,-1.80402 -0.0335,-0.30209 -0.0393,-0.33086 -0.0863,-0.4439 -0.066,-0.15887 -0.1946,-0.55136 -0.30644,-0.93535 -0.33203,-1.13982 -0.35409,-1.66964 -0.0827,-1.97662 0.0722,-0.0815 0.23982,-0.19443 0.36691,-0.24753 0.22745,-0.095 0.58817,-0.13772 0.92397,-0.10852 0.17933,0.0156 0.36225,0.0468 0.58653,0.0992 0.34935,0.0816 0.45205,0.10082 0.62012,0.11782 0.23324,0.0236 0.6814,0.0405 1.21078,0.0465 2.21703,0.0244 3.92376,-0.13282 6.11125,-0.56276 2.52401,-0.49604 4.24068,-1.02566 6.03581,-1.86345 0.719,-0.33554 1.37448,-0.67752 2.36058,-1.23093 0.37915,-0.21283 0.74472,-0.40002 0.86713,-0.44442 0.18734,-0.0679 0.41618,-0.10056 0.58497,-0.0889 z m -4.83743,18.3503 c -0.64437,-0.008 -1.27444,0.11532 -1.89497,0.37052 -0.49348,0.203 -0.97923,0.50273 -1.38338,0.85318 -1.1862,1.02879 -1.8052,2.54423 -1.68413,4.12274 0.06,0.78187 0.27928,1.46262 0.69608,2.15646 0.42305,0.70486 0.92901,1.22654 1.59628,1.64589 0.473,0.29729 0.90713,0.48081 1.45831,0.61754 0.56005,0.13942 1.01588,0.17862 1.56528,0.13642 0.59911,-0.046 1.14958,-0.18888 1.71359,-0.44545 v -5.1e-4 c 0.18328,-0.0834 0.60568,-0.32514 0.76326,-0.43719 0.83623,-0.59465 1.44811,-1.38833 1.80144,-2.33525 0.43189,-1.15752 0.40689,-2.49699 -0.0682,-3.6158 -0.14227,-0.33529 -0.42522,-0.82823 -0.63924,-1.11363 -0.67496,-0.90023 -1.61643,-1.51614 -2.74763,-1.79834 -0.39837,-0.0994 -0.79005,-0.15176 -1.17668,-0.15658 z m 0.0873,0.94309 c 0.60249,0.0137 1.18302,0.16151 1.72857,0.44235 0.28707,0.14781 0.64553,0.39625 0.89659,0.62115 0.29602,0.26606 0.3311,0.31103 0.68471,0.89969 0.35377,0.58891 0.37834,0.6417 0.47284,1.02733 0.17581,0.71655 0.1705,1.37237 -0.017,2.06861 -0.1676,0.62239 -0.45084,1.15341 -0.86713,1.62729 -0.20591,0.23431 -0.37158,0.38366 -0.61082,0.55035 -0.25981,0.18092 -0.64476,0.39992 -0.89193,0.50746 -0.12276,0.0534 -0.36817,0.1337 -0.54829,0.1788 -0.68611,0.17179 -1.28739,0.15028 -2.10013,-0.0744 -0.82783,-0.22885 -1.45887,-0.64902 -1.99316,-1.32705 -0.13254,-0.1684 -0.43803,-0.66874 -0.51883,-0.85008 -0.32692,-0.73348 -0.43183,-1.46077 -0.31884,-2.2102 0.12511,-0.82994 0.44378,-1.51373 1.00459,-2.15594 0.25499,-0.29196 0.35069,-0.36559 0.92242,-0.70848 0.57541,-0.34541 0.65895,-0.38376 1.05058,-0.47646 0.37491,-0.0888 0.74438,-0.12863 1.10588,-0.12041 z m -1.41645,0.81959 c -0.008,0.0354 0.01,0.36914 0.092,1.70377 0.0194,0.31371 0.0378,0.61515 0.0408,0.67025 0.004,0.0654 -3.1e-4,0.10717 -0.0129,0.11937 -0.0464,0.0472 -0.38719,0.19486 -1.50224,0.65061 -0.44659,0.18249 -0.8161,0.33393 -0.8201,0.33693 -0.005,0.003 -0.006,0.01 -0.003,0.014 0.008,0.013 0.54358,0.15745 1.50068,0.40463 0.48939,0.12637 0.90419,0.23694 0.92139,0.24494 0.0303,0.0146 0.0328,0.0337 0.0729,0.55087 0.0228,0.29463 0.043,0.57329 0.045,0.61909 0.002,0.0459 0.0247,0.37049 0.0501,0.7214 l 0.046,0.63769 0.0279,-0.0377 c 0.0535,-0.0727 0.31732,-0.48003 0.84439,-1.30379 l 0.53072,-0.82993 0.49196,0.11679 c 1.01964,0.24187 1.53386,0.36109 1.73787,0.40359 v -5.1e-4 c 0.2359,0.049 0.26728,0.052 0.24908,0.0217 -0.007,-0.0109 -0.12946,-0.15722 -0.27285,-0.32504 -0.2689,-0.31464 -1.05048,-1.24537 -1.20716,-1.43764 l -0.0884,-0.10904 0.008,-0.0382 c 0.0187,-0.0862 0.17589,-0.35332 0.70849,-1.20303 0.437,-0.69715 0.56553,-0.92161 0.54673,-0.95291 -0.007,-0.0114 -0.27463,0.0926 -1.27744,0.49506 -0.47374,0.19014 -0.90906,0.36276 -0.96686,0.38396 l -0.10491,0.0387 -0.0961,-0.10593 c -0.0528,-0.0584 -0.36559,-0.42193 -0.69556,-0.80771 -0.53997,-0.63148 -0.78193,-0.91141 -0.84233,-0.97461 -0.0117,-0.012 -0.0223,-0.0162 -0.0243,-0.007 z m -3.85662,20.53312 c -0.10552,-0.004 -0.20153,0.0266 -0.31987,0.0977 -0.23621,0.14189 -0.33231,0.33314 -0.31161,0.61857 0.009,0.12018 0.0128,0.14111 0.0568,0.22221 0.0631,0.11867 0.12467,0.17821 0.31109,0.30076 0.47451,0.31197 0.92757,0.50169 1.71308,0.7183 0.53818,0.14832 1.12837,0.27133 1.61747,0.33693 0.95329,0.12787 1.77404,0.077 2.66444,-0.16588 0.18286,-0.0499 0.55734,-0.16709 0.68833,-0.21549 h 5.1e-4 c 0.0533,-0.0204 0.0978,-0.038 0.0982,-0.0382 4e-4,-0.001 0.0224,-0.0204 0.0491,-0.0434 0.23991,-0.20473 0.29645,-0.57845 0.13126,-0.85731 -0.10019,-0.16811 -0.29469,-0.29121 -0.47026,-0.29921 -0.10646,-0.005 -0.2032,0.0159 -0.60616,0.12867 -0.54581,0.15272 -0.76451,0.19806 -1.11621,0.23306 -0.72744,0.0724 -1.75151,-0.0613 -2.85926,-0.37413 -0.46082,-0.1301 -0.55747,-0.1696 -1.02991,-0.41962 -0.30651,-0.16219 -0.39673,-0.20289 -0.50695,-0.22789 -0.0384,-0.009 -0.0749,-0.0137 -0.11007,-0.015 z" />
  </g>
</svg>
