<?xml version="1.0" encoding="UTF-8" standalone="no"?>
<!-- Created with Inkscape (http://www.inkscape.org/) -->

<svg
   width="88.176689mm"
   height="30.730133mm"
   viewBox="0 0 88.176689 30.730133"
   version="1.1"
   id="svg5"
   inkscape:version="1.2.1 (9c6d41e, 2022-07-14)"
   sodipodi:docname="lobsters_vs_mobsters.svg"
   xmlns:inkscape="http://www.inkscape.org/namespaces/inkscape"
   xmlns:sodipodi="http://sodipodi.sourceforge.net/DTD/sodipodi-0.dtd"
   xmlns="http://www.w3.org/2000/svg"
   xmlns:svg="http://www.w3.org/2000/svg">
  <sodipodi:namedview
     id="namedview7"
     pagecolor="#ffffff"
     bordercolor="#000000"
     borderopacity="0.25"
     inkscape:showpageshadow="2"
     inkscape:pageopacity="0.0"
     inkscape:pagecheckerboard="0"
     inkscape:deskcolor="#d1d1d1"
     inkscape:document-units="mm"
     showgrid="false"
     inkscape:zoom="2.4350764"
     inkscape:cx="169.3992"
     inkscape:cy="91.783567"
     inkscape:window-width="2346"
     inkscape:window-height="1387"
     inkscape:window-x="1726"
     inkscape:window-y="25"
     inkscape:window-maximized="0"
     inkscape:current-layer="layer1" />
  <defs
     id="defs2">
    <rect
       x="204.32111"
       y="123.60166"
       width="513.32526"
       height="211.88857"
       id="rect2375" />
    <rect
       x="204.32111"
       y="123.60166"
       width="513.32526"
       height="211.88857"
       id="rect398" />
    <rect
       x="204.32111"
       y="123.60166"
       width="513.32526"
       height="211.88857"
       id="rect404" />
    <filter
       style="color-interpolation-filters:sRGB"
       inkscape:label="Drop Shadow"
       id="filter2919"
       x="-0.036781739"
       y="-0.23920362"
       width="1.0735635"
       height="1.4784071">
      <feFlood
         flood-opacity="0.768627"
         flood-color="rgb(253,185,255)"
         result="flood"
         id="feFlood2909" />
      <feComposite
         in="flood"
         in2="SourceGraphic"
         operator="in"
         result="composite1"
         id="feComposite2911" />
      <feGaussianBlur
         in="composite1"
         stdDeviation="1.3"
         result="blur"
         id="feGaussianBlur2913" />
      <feOffset
         dx="0"
         dy="0"
         result="offset"
         id="feOffset2915" />
      <feComposite
         in="SourceGraphic"
         in2="offset"
         operator="over"
         result="composite2"
         id="feComposite2917" />
    </filter>
    <filter
       style="color-interpolation-filters:sRGB"
       inkscape:label="Drop Shadow"
       id="filter3075"
       x="-0.2565901"
       y="-1.5582459"
       width="1.5131803"
       height="4.1164918">
      <feFlood
         flood-opacity="0.901961"
         flood-color="rgb(0,0,0)"
         result="flood"
         id="feFlood3065" />
      <feComposite
         in="flood"
         in2="SourceGraphic"
         operator="in"
         result="composite1"
         id="feComposite3067" />
      <feGaussianBlur
         in="composite1"
         stdDeviation="1.5"
         result="blur"
         id="feGaussianBlur3069" />
      <feOffset
         dx="0"
         dy="0"
         result="offset"
         id="feOffset3071" />
      <feComposite
         in="SourceGraphic"
         in2="offset"
         operator="over"
         result="composite2"
         id="feComposite3073" />
    </filter>
    <filter
       style="color-interpolation-filters:sRGB"
       inkscape:label="Drop Shadow"
       id="filter7883"
       x="-0.017106006"
       y="-0.10388306"
       width="1.034212"
       height="1.2077661">
      <feFlood
         flood-opacity="0.901961"
         flood-color="rgb(144,248,191)"
         result="flood"
         id="feFlood7873" />
      <feComposite
         in="flood"
         in2="SourceGraphic"
         operator="in"
         result="composite1"
         id="feComposite7875" />
      <feGaussianBlur
         in="composite1"
         stdDeviation="0.1"
         result="blur"
         id="feGaussianBlur7877" />
      <feOffset
         dx="0"
         dy="0"
         result="offset"
         id="feOffset7879" />
      <feComposite
         in="SourceGraphic"
         in2="offset"
         operator="over"
         result="composite2"
         id="feComposite7881" />
    </filter>
    <filter
       style="color-interpolation-filters:sRGB"
       inkscape:label="Drop Shadow"
       id="filter7967"
       x="-0.016976189"
       y="-0.11040167"
       width="1.0339524"
       height="1.2208033">
      <feFlood
         flood-opacity="0.901961"
         flood-color="rgb(245,144,248)"
         result="flood"
         id="feFlood7957" />
      <feComposite
         in="flood"
         in2="SourceGraphic"
         operator="in"
         result="composite1"
         id="feComposite7959" />
      <feGaussianBlur
         in="composite1"
         stdDeviation="0.6"
         result="blur"
         id="feGaussianBlur7961" />
      <feOffset
         dx="0"
         dy="0"
         result="offset"
         id="feOffset7963" />
      <feComposite
         in="SourceGraphic"
         in2="offset"
         operator="over"
         result="composite2"
         id="feComposite7965" />
    </filter>
    <filter
       style="color-interpolation-filters:sRGB"
       inkscape:label="Drop Shadow"
       id="filter9066"
       x="-0.18294671"
       y="-0.29376899"
       width="1.3658934"
       height="1.587538">
      <feFlood
         flood-opacity="0.901961"
         flood-color="rgb(245,144,248)"
         result="flood"
         id="feFlood9056" />
      <feComposite
         in="flood"
         in2="SourceGraphic"
         operator="in"
         result="composite1"
         id="feComposite9058" />
      <feGaussianBlur
         in="composite1"
         stdDeviation="0.6"
         result="blur"
         id="feGaussianBlur9060" />
      <feOffset
         dx="0"
         dy="0"
         result="offset"
         id="feOffset9062" />
      <feComposite
         in="SourceGraphic"
         in2="offset"
         operator="over"
         result="composite2"
         id="feComposite9064" />
    </filter>
    <filter
       style="color-interpolation-filters:sRGB"
       inkscape:label="Drop Shadow"
       id="filter9126"
       x="-0.064573403"
       y="-0.064573403"
       width="1.1291468"
       height="1.1291468">
      <feFlood
         flood-opacity="0.901961"
         flood-color="rgb(245,144,248)"
         result="flood"
         id="feFlood9116" />
      <feComposite
         in="flood"
         in2="SourceGraphic"
         operator="in"
         result="composite1"
         id="feComposite9118" />
      <feGaussianBlur
         in="composite1"
         stdDeviation="0.2"
         result="blur"
         id="feGaussianBlur9120" />
      <feOffset
         dx="0"
         dy="0"
         result="offset"
         id="feOffset9122" />
      <feComposite
         in="SourceGraphic"
         in2="offset"
         operator="over"
         result="composite2"
         id="feComposite9124" />
    </filter>
  </defs>
  <g
     inkscape:label="Layer 1"
     inkscape:groupmode="layer"
     id="layer1"
     transform="translate(-61.115162,-25.976461)">
    <g
       id="g856"
       transform="translate(-0.01737518,-11.404416)"
       style="fill:#e6e6e6;fill-opacity:1">
      <path
         style="color:#000000;font-family:'Courier Prime';-inkscape-font-specification:'Luckiest Guy';white-space:pre;fill:#e6e6e6;fill-opacity:1;stroke:none;stroke-width:59.2819;stroke-linejoin:miter;stroke-dashoffset:1334.34;stroke-opacity:1;-inkscape-stroke:none"
         d="m 76.541163,38.890664 -0.802121,12.799131 -3.975741,0.174363 0.03482,-6.7483 -1.79606,5.440498 h -1.534499 l -1.37756,-4.865059 -0.01741,5.64974 -4.028059,0.122016 0.174378,-12.049297 4.481438,-0.174379 1.77862,5.771801 2.371499,-6.120558 z"
         id="path683" />
      <path
         style="color:#000000;font-family:'Courier Prime';-inkscape-font-specification:'Luckiest Guy';white-space:pre;fill:#e6e6e6;fill-opacity:1;stroke:none;stroke-width:59.2819;stroke-linejoin:miter;stroke-dashoffset:1334.34;stroke-opacity:1;-inkscape-stroke:none"
         d="m 87.858097,44.92404 q 0,0.793402 -0.183084,1.5345 -0.183098,0.732378 -0.531855,1.37756 -0.340023,0.645196 -0.837,1.185756 -0.488242,0.531841 -1.10728,0.915462 -0.610303,0.383621 -1.333961,0.601598 -0.723659,0.209243 -1.5345,0.209243 -0.784681,0 -1.49962,-0.200523 -0.70622,-0.200538 -1.325257,-0.558 -0.619023,-0.366196 -1.124719,-0.871878 -0.496962,-0.514401 -0.854439,-1.133439 -0.348743,-0.627742 -0.54928,-1.342681 -0.191803,-0.714939 -0.191803,-1.490916 0,-0.758522 0.183083,-1.482181 0.183098,-0.732378 0.523136,-1.37756 0.348742,-0.645182 0.837,-1.185742 0.488242,-0.540575 1.08984,-0.932916 0.610303,-0.392341 1.316522,-0.610303 0.70622,-0.217977 1.490916,-0.217977 1.264219,0 2.301742,0.392341 1.046257,0.392355 1.77862,1.124719 0.741098,0.723659 1.142159,1.761196 0.40978,1.028803 0.40978,2.301741 z m -3.87112,0.226682 q 0,-0.374901 -0.113385,-0.723644 -0.104607,-0.357477 -0.313879,-0.627757 -0.209242,-0.279 -0.523121,-0.444659 -0.305159,-0.174363 -0.706219,-0.174363 -0.40978,0 -0.732379,0.148204 -0.322598,0.148205 -0.557999,0.40978 -0.226682,0.252841 -0.348743,0.601584 -0.122016,0.340037 -0.122016,0.723658 0,0.366182 0.104607,0.732379 0.104606,0.366181 0.313878,0.662621 0.209243,0.296439 0.514402,0.479537 0.313878,0.183084 0.723658,0.183084 0.40978,0 0.732364,-0.15694 0.331318,-0.165644 0.558,-0.435924 0.226696,-0.279 0.348757,-0.636477 0.122016,-0.357462 0.122016,-0.741098 z"
         id="path689" />
      <path
         style="color:#000000;font-family:'Courier Prime';-inkscape-font-specification:'Luckiest Guy';white-space:pre;fill:#e6e6e6;fill-opacity:1;stroke:none;stroke-width:59.2819;stroke-linejoin:miter;stroke-dashoffset:1334.34;stroke-opacity:1;-inkscape-stroke:none"
         d="m 98.617031,48.498721 q 0,0.723658 -0.27028,1.246794 -0.261561,0.523121 -0.70622,0.889303 -0.444658,0.366197 -1.028802,0.601598 -0.575439,0.226682 -1.203196,0.357462 -0.627743,0.130795 -1.26422,0.174379 -0.627742,0.0436 -1.177022,0.0436 -0.54056,0 -1.124719,-0.0436 -0.575439,-0.03482 -1.150878,-0.130795 -0.575439,-0.09583 -1.133439,-0.252841 -0.558,-0.165659 -1.054962,-0.40978 l -0.01741,-11.229752 q 0.488242,-0.200523 1.037522,-0.357463 0.54928,-0.165659 1.115999,-0.27028 0.57544,-0.113385 1.142159,-0.165659 0.566719,-0.06101 1.09856,-0.06101 0.619038,0 1.24678,0.07842 0.636477,0.07842 1.220635,0.26156 0.584144,0.183099 1.089841,0.479538 0.505682,0.287705 0.880583,0.714924 0.383636,0.42722 0.592878,0.993939 0.217977,0.566719 0.217977,1.307817 0,0.488243 -0.139425,0.915462 -0.139426,0.42722 -0.401061,0.767257 -0.261575,0.340023 -0.636476,0.584159 -0.374902,0.235402 -0.84572,0.348742 0.56672,0.148205 1.028818,0.43594 0.470803,0.287719 0.793401,0.697499 0.331318,0.40978 0.505682,0.924182 0.183098,0.514416 0.183098,1.09856 z m -4.429119,-4.96968 q 0,-0.252841 -0.104607,-0.42722 -0.104606,-0.183083 -0.26156,-0.296439 -0.148205,-0.113385 -0.331318,-0.165644 -0.174379,-0.05238 -0.313879,-0.05238 -0.174378,0 -0.340022,0.05238 -0.165659,0.05238 -0.322599,0.122016 l -0.05238,1.93556 q 0.200538,0 0.496977,-0.03482 0.296439,-0.03482 0.566719,-0.148205 0.279,-0.122016 0.470803,-0.348742 0.191818,-0.235417 0.191818,-0.636477 z m -1.23806,2.842317 q -0.252841,0 -0.488257,0.05238 l -0.03482,1.987878 q 0.130795,0.02619 0.252841,0.05238 0.130795,0.01741 0.252841,0.01741 0.183098,0 0.40106,-0.03482 0.217963,-0.0436 0.409781,-0.156939 0.191818,-0.122016 0.313878,-0.322598 0.130795,-0.200523 0.130795,-0.531841 0,-0.331318 -0.130795,-0.540561 -0.122016,-0.209257 -0.305159,-0.322598 -0.183098,-0.122016 -0.40106,-0.156939 -0.217977,-0.0436 -0.401061,-0.0436 z"
         id="path695" />
      <path
         style="color:#000000;font-family:'Courier Prime';-inkscape-font-specification:'Luckiest Guy';white-space:pre;fill:#e6e6e6;fill-opacity:1;stroke:none;stroke-width:59.2819;stroke-linejoin:miter;stroke-dashoffset:1334.34;stroke-opacity:1;-inkscape-stroke:none"
         d="m 107.91122,47.1386 q 0,1.194476 -0.4185,2.06634 -0.40979,0.863159 -1.13344,1.429878 -0.71493,0.558 -1.68271,0.82828 -0.95906,0.26156 -2.06634,0.26156 -0.42722,0 -0.94164,-0.113385 -0.50568,-0.113386 -1.0288,-0.279 -0.52314,-0.174379 -1.011381,-0.366182 -0.479537,-0.200537 -0.854439,-0.374916 l 0.383621,-3.417741 q 0.741098,0.444659 1.639139,0.68006 0.90674,0.226682 1.77862,0.226682 0.16566,0 0.40106,-0.0089 0.2354,-0.01741 0.44466,-0.07842 0.21796,-0.06979 0.36618,-0.200523 0.1482,-0.130795 0.1482,-0.374917 0,-0.165659 -0.1046,-0.278999 -0.10461,-0.122016 -0.27028,-0.191804 -0.16566,-0.07842 -0.37492,-0.113385 -0.20924,-0.0436 -0.40978,-0.06101 -0.20052,-0.01741 -0.3749,-0.01741 -0.17438,0 -0.279,0 -0.74982,0 -1.36884,-0.235401 -0.61032,-0.235416 -1.054978,-0.662636 -0.435925,-0.435924 -0.680061,-1.046242 -0.244121,-0.619038 -0.244121,-1.36884 0,-1.028818 0.40978,-1.839659 0.4185,-0.81956 1.10728,-1.386279 0.6975,-0.575439 1.59554,-0.880598 0.89802,-0.305159 1.85708,-0.305159 0.42722,0 0.8806,0.03482 0.45338,0.02619 0.89804,0.104606 0.45336,0.07842 0.88058,0.200538 0.42722,0.122016 0.81085,0.305159 l -0.33131,3.539802 q -0.59288,-0.200523 -1.24678,-0.331303 -0.6452,-0.139426 -1.26422,-0.139426 -0.11339,0 -0.29644,0.0089 -0.17438,0 -0.3749,0.02619 -0.19182,0.01741 -0.39234,0.06101 -0.20054,0.0436 -0.35748,0.122016 -0.15694,0.06979 -0.25284,0.191818 -0.096,0.122016 -0.0872,0.287719 0.009,0.191803 0.13943,0.296439 0.13942,0.104607 0.34874,0.156925 0.21796,0.0436 0.47082,0.0436 0.26156,0 0.5144,-0.0089 0.25284,-0.01741 0.47082,-0.02619 0.21796,-0.01741 0.35746,-0.0089 0.6975,0.0436 1.2555,0.29644 0.558,0.252855 0.94162,0.671355 0.39234,0.4185 0.59288,1.002644 0.20925,0.575439 0.20925,1.272939 z"
         id="path701" />
      <path
         style="color:#000000;font-family:'Courier Prime';-inkscape-font-specification:'Luckiest Guy';white-space:pre;fill:#e6e6e6;fill-opacity:1;stroke:none;stroke-width:59.2819;stroke-linejoin:miter;stroke-dashoffset:1334.34;stroke-opacity:1;-inkscape-stroke:none"
         d="m 117.49312,39.309164 -0.0872,3.696756 -2.59818,0.104606 -0.31388,8.090996 -3.6793,0.191818 -0.33131,-8.090996 -2.59819,0.139426 0.10461,-4.115256 z"
         id="path707" />
      <path
         style="color:#000000;font-family:'Courier Prime';-inkscape-font-specification:'Luckiest Guy';white-space:pre;fill:#e6e6e6;fill-opacity:1;stroke:none;stroke-width:59.2819;stroke-linejoin:miter;stroke-dashoffset:1334.34;stroke-opacity:1;-inkscape-stroke:none"
         d="m 127.54584,44.557859 q 0,0.758522 -0.10461,1.517059 -1.49092,0.09583 -2.96438,0.313879 -1.47347,0.209243 -2.94694,0.4185 0.22669,0.627742 0.70622,1.002644 0.48825,0.374916 1.1596,0.374916 0.34874,0 0.75852,-0.130795 0.4185,-0.130795 0.82828,-0.322599 0.40978,-0.200537 0.7847,-0.427219 0.3749,-0.226682 0.64518,-0.40978 l -0.4185,3.958316 q -0.34004,0.261561 -0.7411,0.444644 -0.39234,0.183098 -0.81956,0.296439 -0.42722,0.113386 -0.86316,0.165659 -0.43593,0.05238 -0.85443,0.05238 -0.86315,0 -1.57809,-0.235417 -0.71494,-0.235401 -1.29909,-0.653901 -0.57544,-0.427219 -1.01138,-1.002658 -0.43594,-0.57544 -0.72366,-1.2555 -0.28771,-0.68006 -0.43593,-1.438583 -0.1482,-0.758537 -0.1482,-1.534499 0,-0.810855 0.1482,-1.621696 0.14821,-0.810841 0.44465,-1.560658 0.30516,-0.749803 0.75854,-1.38628 0.46209,-0.645182 1.0724,-1.124719 0.61031,-0.479523 1.37756,-0.749803 0.77597,-0.27028 1.70887,-0.27028 0.77598,0 1.41244,0.217962 0.64518,0.209257 1.14216,0.592878 0.50568,0.374902 0.87188,0.898038 0.3749,0.523121 0.6103,1.150863 0.24412,0.619038 0.35748,1.316537 0.12202,0.68878 0.12202,1.403719 z m -3.4875,-0.453379 q 0,-0.244121 -0.0524,-0.496962 -0.0522,-0.261575 -0.17438,-0.470818 -0.11338,-0.209257 -0.30514,-0.340037 -0.19182,-0.139426 -0.47954,-0.139426 -0.34874,0 -0.61904,0.191818 -0.26156,0.183098 -0.45336,0.470818 -0.19182,0.279 -0.31388,0.610303 -0.12202,0.331318 -0.1831,0.610318 l 2.58076,-0.244122 z"
         id="path713" />
      <path
         style="color:#000000;font-family:'Courier Prime';-inkscape-font-specification:'Luckiest Guy';white-space:pre;fill:#e6e6e6;fill-opacity:1;stroke:none;stroke-width:59.2819;stroke-linejoin:miter;stroke-dashoffset:1334.34;stroke-opacity:1;-inkscape-stroke:none"
         d="m 138.33091,43.197738 q 0,0.68006 -0.12201,1.23806 -0.11339,0.54928 -0.36618,1.011363 -0.25284,0.462099 -0.65391,0.854439 -0.40106,0.392341 -0.96777,0.749818 l 2.07505,3.696741 -3.92343,0.767257 -1.3427,-3.714195 -1.08112,0.03482 -0.15694,3.626998 h -3.74906 q 0.0436,-1.987877 0.0784,-3.958301 0.0436,-1.970438 0.0958,-3.958316 0.0174,-1.002659 0.0348,-1.987878 0.0174,-0.985219 0.0698,-1.987863 0.61032,-0.226697 1.2032,-0.374916 0.59286,-0.148205 1.18574,-0.226682 0.6016,-0.0872 1.2119,-0.113386 0.61904,-0.03482 1.26422,-0.03482 0.99394,0 1.91814,0.279 0.9329,0.27028 1.64784,0.81956 0.71494,0.54928 1.14216,1.368841 0.43592,0.81956 0.43592,1.909415 z m -3.90599,0.278985 q 0,-0.366182 -0.10461,-0.671341 -0.0958,-0.305144 -0.29644,-0.523121 -0.1918,-0.226682 -0.48824,-0.348742 -0.28772,-0.130795 -0.68006,-0.130795 -0.17438,0 -0.34004,0.02619 -0.16566,0.01741 -0.3226,0.06101 l -0.13942,3.243378 h 0.20925 q 0.3749,0 0.75854,-0.09598 0.39234,-0.09583 0.6975,-0.29644 0.31386,-0.200522 0.50568,-0.514401 0.20053,-0.313878 0.20053,-0.749818 z"
         id="path719" />
      <path
         style="color:#000000;font-family:'Courier Prime';-inkscape-font-specification:'Luckiest Guy';white-space:pre;fill:#e6e6e6;fill-opacity:1;stroke:none;stroke-width:59.2819;stroke-linejoin:miter;stroke-dashoffset:1334.34;stroke-opacity:1;-inkscape-stroke:none"
         d="m 147.86923,47.1386 q 0,1.194476 -0.4185,2.06634 -0.40978,0.863159 -1.13344,1.429878 -0.71494,0.558 -1.68272,0.82828 -0.95906,0.26156 -2.06634,0.26156 -0.42722,0 -0.94162,-0.113385 -0.5057,-0.113386 -1.02882,-0.279 -0.52312,-0.174379 -1.01138,-0.366182 -0.47952,-0.200537 -0.85442,-0.374916 l 0.38362,-3.417741 q 0.7411,0.444659 1.63912,0.68006 0.90676,0.226682 1.77862,0.226682 0.16566,0 0.40106,-0.0089 0.23542,-0.01741 0.44466,-0.07842 0.21798,-0.06979 0.3662,-0.200523 0.1482,-0.130795 0.1482,-0.374917 0,-0.165659 -0.1046,-0.278999 -0.10461,-0.122016 -0.27028,-0.191804 -0.16566,-0.07842 -0.37491,-0.113385 -0.20925,-0.0436 -0.40978,-0.06101 -0.20053,-0.01741 -0.3749,-0.01741 -0.17438,0 -0.279,0 -0.74982,0 -1.36885,-0.235401 -0.61031,-0.235416 -1.05496,-0.662636 -0.43594,-0.435924 -0.68006,-1.046242 -0.24413,-0.619038 -0.24413,-1.36884 0,-1.028818 0.40978,-1.839659 0.4185,-0.81956 1.10728,-1.386279 0.6975,-0.575439 1.59553,-0.880598 0.89803,-0.305159 1.85709,-0.305159 0.42722,0 0.8806,0.03482 0.45337,0.02619 0.89802,0.104606 0.45338,0.07842 0.8806,0.200538 0.42722,0.122016 0.81084,0.305159 l -0.33132,3.539802 q -0.59286,-0.200523 -1.24677,-0.331303 -0.64519,-0.139426 -1.26422,-0.139426 -0.11339,0 -0.29643,0.0089 -0.17438,0 -0.37491,0.02619 -0.19181,0.01741 -0.39235,0.06101 -0.20052,0.0436 -0.35746,0.122016 -0.15694,0.06979 -0.25285,0.191818 -0.096,0.122016 -0.0872,0.287719 0.009,0.191803 0.13943,0.296439 0.13942,0.104607 0.34875,0.156925 0.21796,0.0436 0.47081,0.0436 0.26156,0 0.51441,-0.0089 0.25284,-0.01741 0.47081,-0.02619 0.21797,-0.01741 0.35747,-0.0089 0.6975,0.0436 1.2555,0.29644 0.558,0.252855 0.94162,0.671355 0.39234,0.4185 0.59288,1.002644 0.20924,0.575439 0.20924,1.272939 z"
         id="path725" />
    </g>
    <g
       id="g1127"
       transform="matrix(6.0458824,0,0,6.0458824,-92.850942,-588.65024)"
       style="fill:#e6e6e6;fill-opacity:1">
      <path
         style="color:#000000;font-family:'Courier Prime';-inkscape-font-specification:'Luckiest Guy';white-space:pre;fill:#e6e6e6;fill-opacity:1;stroke:none;stroke-width:10.541;stroke-linejoin:miter;stroke-dashoffset:1334.34;stroke-opacity:1;-inkscape-stroke:none"
         d="m 27.076733,105.58205 -0.06511,0.68833 -1.305348,0.10232 q 0.0093,-0.54105 0.02016,-1.07591 0.01241,-0.53485 0.02945,-1.0759 h 0.806153 q -0.03566,0.33951 -0.06821,0.67903 -0.03256,0.33796 -0.04651,0.68213 0.07287,0.003 0.14418,0.003 0.07131,0 0.144176,0 0.08682,0 0.170532,-0.002 0.08372,-0.002 0.170532,-0.002 z"
         id="path982" />
      <path
         style="color:#000000;font-family:'Courier Prime';-inkscape-font-specification:'Luckiest Guy';white-space:pre;fill:#e6e6e6;fill-opacity:1;stroke:none;stroke-width:10.541;stroke-linejoin:miter;stroke-dashoffset:1334.34;stroke-opacity:1;-inkscape-stroke:none"
         d="m 29.065759,105.27819 q 0,0.14108 -0.03256,0.27285 -0.03255,0.13023 -0.09457,0.24495 -0.06046,0.11472 -0.148828,0.21084 -0.08681,0.0946 -0.196887,0.16278 -0.108522,0.0682 -0.237194,0.10697 -0.128675,0.0372 -0.272852,0.0372 -0.139528,0 -0.266652,-0.0357 -0.125574,-0.0357 -0.235643,-0.0992 -0.110072,-0.0651 -0.199988,-0.15503 -0.08837,-0.0915 -0.151929,-0.20154 -0.06201,-0.11162 -0.09767,-0.23874 -0.03411,-0.12713 -0.03411,-0.26511 0,-0.13487 0.03256,-0.26354 0.03256,-0.13023 0.09302,-0.24495 0.06201,-0.11472 0.148828,-0.21084 0.08682,-0.0961 0.193786,-0.16588 0.108522,-0.0698 0.234096,-0.10852 0.125574,-0.0388 0.265099,-0.0388 0.224793,0 0.409279,0.0698 0.186033,0.0698 0.316259,0.19999 0.131775,0.12867 0.203089,0.31316 0.07286,0.18293 0.07286,0.40927 z m -0.688329,0.0403 q 0,-0.0667 -0.02016,-0.12867 -0.0186,-0.0636 -0.05581,-0.11163 -0.03721,-0.0496 -0.09302,-0.0791 -0.05426,-0.031 -0.125571,-0.031 -0.07287,0 -0.130225,0.0263 -0.05736,0.0264 -0.09922,0.0729 -0.04031,0.045 -0.06201,0.10697 -0.0217,0.0605 -0.0217,0.12868 0,0.0651 0.0186,0.13022 0.0186,0.0651 0.05581,0.11782 0.03721,0.0527 0.09147,0.0853 0.05581,0.0326 0.128675,0.0326 0.07286,0 0.130225,-0.0279 0.05891,-0.0295 0.09922,-0.0775 0.04031,-0.0496 0.06201,-0.11317 0.0217,-0.0636 0.0217,-0.13177 z"
         id="path988" />
      <path
         style="color:#000000;font-family:'Courier Prime';-inkscape-font-specification:'Luckiest Guy';white-space:pre;fill:#e6e6e6;fill-opacity:1;stroke:none;stroke-width:10.541;stroke-linejoin:miter;stroke-dashoffset:1334.34;stroke-opacity:1;-inkscape-stroke:none"
         d="m 30.978821,105.91381 q 0,0.12867 -0.04806,0.22169 -0.04651,0.093 -0.125574,0.15813 -0.07906,0.0651 -0.182935,0.10697 -0.10232,0.0403 -0.21394,0.0636 -0.111622,0.0233 -0.224792,0.031 -0.111623,0.008 -0.209291,0.008 -0.09612,0 -0.199988,-0.008 -0.10232,-0.006 -0.204637,-0.0233 -0.10232,-0.017 -0.201538,-0.045 -0.09922,-0.0295 -0.187587,-0.0729 l -0.0031,-1.99678 q 0.08682,-0.0357 0.184486,-0.0636 0.09767,-0.0295 0.198438,-0.0481 0.102319,-0.0202 0.203089,-0.0295 0.100769,-0.0108 0.195336,-0.0108 0.110069,0 0.221692,0.0139 0.11317,0.0139 0.21704,0.0465 0.10387,0.0326 0.193786,0.0853 0.08992,0.0512 0.156581,0.12712 0.06821,0.076 0.10542,0.17674 0.03876,0.10077 0.03876,0.23254 0,0.0868 -0.02479,0.16278 -0.02479,0.076 -0.07131,0.13643 -0.04651,0.0605 -0.11317,0.10387 -0.06667,0.0419 -0.150379,0.062 0.100769,0.0263 0.182933,0.0775 0.08372,0.0512 0.141079,0.12402 0.05891,0.0729 0.08992,0.16433 0.03256,0.0915 0.03256,0.19534 z m -0.787548,-0.88367 q 0,-0.045 -0.0186,-0.076 -0.0186,-0.0326 -0.04651,-0.0527 -0.02635,-0.0202 -0.05891,-0.0294 -0.03101,-0.009 -0.05581,-0.009 -0.03101,0 -0.06046,0.009 -0.02946,0.009 -0.05736,0.0217 l -0.0093,0.34417 q 0.03565,0 0.08836,-0.006 0.05271,-0.006 0.100769,-0.0263 0.04961,-0.0217 0.08372,-0.062 0.03411,-0.0419 0.03411,-0.11317 z m -0.220144,0.5054 q -0.04496,0 -0.08682,0.009 l -0.0062,0.35347 q 0.02326,0.005 0.04496,0.009 0.02326,0.003 0.04496,0.003 0.03256,0 0.07131,-0.006 0.03876,-0.008 0.07286,-0.0279 0.03411,-0.0217 0.05581,-0.0574 0.02326,-0.0357 0.02326,-0.0946 0,-0.0589 -0.02326,-0.0961 -0.0217,-0.0372 -0.05426,-0.0574 -0.03256,-0.0217 -0.07131,-0.0279 -0.03876,-0.008 -0.07132,-0.008 z"
         id="path994" />
      <path
         style="color:#000000;font-family:'Courier Prime';-inkscape-font-specification:'Luckiest Guy';white-space:pre;fill:#e6e6e6;fill-opacity:1;stroke:none;stroke-width:10.541;stroke-linejoin:miter;stroke-dashoffset:1334.34;stroke-opacity:1;-inkscape-stroke:none"
         d="m 32.631432,105.67196 q 0,0.2124 -0.07441,0.36742 -0.07286,0.15348 -0.201538,0.25425 -0.127125,0.0992 -0.299207,0.14728 -0.170532,0.0465 -0.367419,0.0465 -0.07596,0 -0.167431,-0.0202 -0.08992,-0.0202 -0.182935,-0.0496 -0.09302,-0.031 -0.179832,-0.0651 -0.08527,-0.0357 -0.151929,-0.0667 l 0.06821,-0.60772 q 0.131776,0.0791 0.291454,0.12093 0.161232,0.0403 0.316259,0.0403 0.02946,0 0.07132,-0.002 0.04186,-0.003 0.07906,-0.0139 0.03876,-0.0124 0.06511,-0.0357 0.02635,-0.0233 0.02635,-0.0667 0,-0.0295 -0.0186,-0.0496 -0.0186,-0.0217 -0.04806,-0.0341 -0.02945,-0.0139 -0.06666,-0.0202 -0.03721,-0.008 -0.07286,-0.0109 -0.03566,-0.003 -0.06666,-0.003 -0.03101,0 -0.04961,0 -0.133326,0 -0.243398,-0.0419 -0.108519,-0.0419 -0.187585,-0.11783 -0.07751,-0.0775 -0.120922,-0.18603 -0.04341,-0.11007 -0.04341,-0.2434 0,-0.18293 0.07286,-0.32711 0.07441,-0.14573 0.196887,-0.24649 0.124023,-0.10232 0.283702,-0.15658 0.159681,-0.0543 0.330213,-0.0543 0.07597,0 0.156581,0.006 0.08061,0.005 0.159678,0.0186 0.08062,0.0139 0.156581,0.0357 0.07596,0.0217 0.144176,0.0543 l -0.05891,0.62941 q -0.105421,-0.0356 -0.221694,-0.0589 -0.114721,-0.0248 -0.22479,-0.0248 -0.02016,0 -0.05271,0.002 -0.03101,0 -0.06666,0.005 -0.03411,0.003 -0.06976,0.0109 -0.03565,0.008 -0.06356,0.0217 -0.02791,0.0124 -0.04496,0.0341 -0.01707,0.0217 -0.0155,0.0512 0.0016,0.0341 0.02479,0.0527 0.02479,0.0186 0.06201,0.0279 0.03876,0.008 0.08371,0.008 0.04651,0 0.09147,-0.002 0.04496,-0.003 0.08371,-0.005 0.03876,-0.003 0.06356,-0.002 0.124024,0.008 0.223242,0.0527 0.09922,0.045 0.167431,0.11938 0.06976,0.0744 0.105421,0.17828 0.03721,0.10232 0.03721,0.22634 z"
         id="path1000" />
      <path
         style="color:#000000;font-family:'Courier Prime';-inkscape-font-specification:'Luckiest Guy';white-space:pre;fill:#e6e6e6;fill-opacity:1;stroke:none;stroke-width:10.541;stroke-linejoin:miter;stroke-dashoffset:1334.34;stroke-opacity:1;-inkscape-stroke:none"
         d="m 34.335203,104.2798 -0.0155,0.65733 -0.461987,0.0186 -0.05581,1.43867 -0.654224,0.0341 -0.05891,-1.43868 -0.461989,0.0248 0.0186,-0.73173 z"
         id="path1006" />
      <path
         style="color:#000000;font-family:'Courier Prime';-inkscape-font-specification:'Luckiest Guy';white-space:pre;fill:#e6e6e6;fill-opacity:1;stroke:none;stroke-width:10.541;stroke-linejoin:miter;stroke-dashoffset:1334.34;stroke-opacity:1;-inkscape-stroke:none"
         d="m 36.122691,105.21308 q 0,0.13487 -0.0186,0.26975 -0.265099,0.017 -0.5271,0.0558 -0.261999,0.0372 -0.523997,0.0744 0.04031,0.11162 0.125571,0.17828 0.08682,0.0667 0.20619,0.0667 0.06201,0 0.134877,-0.0233 0.07441,-0.0233 0.147277,-0.0574 0.07286,-0.0357 0.139526,-0.076 0.06666,-0.0403 0.114723,-0.0729 l -0.07441,0.70383 q -0.06046,0.0465 -0.131776,0.0791 -0.06976,0.0326 -0.145727,0.0527 -0.07596,0.0202 -0.153479,0.0295 -0.07751,0.009 -0.151929,0.009 -0.15348,0 -0.280604,-0.0419 -0.127125,-0.0419 -0.230992,-0.11627 -0.10232,-0.076 -0.179835,-0.17828 -0.07751,-0.10232 -0.128674,-0.22324 -0.05116,-0.12093 -0.07751,-0.2558 -0.02635,-0.13488 -0.02635,-0.27285 0,-0.14418 0.02635,-0.28836 0.02635,-0.14418 0.07906,-0.2775 0.05426,-0.13332 0.134877,-0.2465 0.08216,-0.11472 0.190685,-0.19999 0.108521,-0.0853 0.244946,-0.13332 0.137975,-0.0481 0.303858,-0.0481 0.137975,0 0.251148,0.0388 0.11472,0.0372 0.203086,0.10542 0.08992,0.0667 0.15503,0.15968 0.06666,0.093 0.108521,0.20464 0.04341,0.11007 0.06356,0.23409 0.0217,0.12248 0.0217,0.2496 z m -0.620117,-0.0806 q 0,-0.0434 -0.0093,-0.0884 -0.0093,-0.0465 -0.03101,-0.0837 -0.02016,-0.0372 -0.05426,-0.0605 -0.03411,-0.0248 -0.08527,-0.0248 -0.06201,0 -0.110072,0.0341 -0.04651,0.0326 -0.08062,0.0837 -0.0341,0.0496 -0.05581,0.10852 -0.0217,0.0589 -0.03256,0.10852 l 0.458885,-0.0434 z"
         id="path1012" />
      <path
         style="color:#000000;font-family:'Courier Prime';-inkscape-font-specification:'Luckiest Guy';white-space:pre;fill:#e6e6e6;fill-opacity:1;stroke:none;stroke-width:10.541;stroke-linejoin:miter;stroke-dashoffset:1334.34;stroke-opacity:1;-inkscape-stroke:none"
         d="m 38.040405,104.97123 q 0,0.12093 -0.0217,0.22014 -0.02016,0.0977 -0.06511,0.17984 -0.04496,0.0822 -0.116273,0.15193 -0.07131,0.0698 -0.172083,0.13332 l 0.36897,0.65732 -0.697633,0.13643 -0.238744,-0.66042 -0.192235,0.006 -0.02791,0.64492 h -0.666626 q 0.0078,-0.35347 0.01394,-0.70383 0.0078,-0.35037 0.01707,-0.70384 0.0031,-0.17828 0.0062,-0.35347 0.0031,-0.17518 0.01241,-0.35346 0.108519,-0.0403 0.213939,-0.0667 0.105421,-0.0263 0.210841,-0.0403 0.106969,-0.0155 0.21549,-0.0202 0.110072,-0.006 0.224793,-0.006 0.176734,0 0.341064,0.0496 0.165883,0.0481 0.293005,0.14573 0.127124,0.0977 0.203088,0.24339 0.07751,0.14573 0.07751,0.33952 z m -0.694532,0.0496 q 0,-0.0651 -0.0186,-0.11937 -0.01704,-0.0543 -0.05271,-0.093 -0.03411,-0.0403 -0.08682,-0.062 -0.05116,-0.0233 -0.120922,-0.0233 -0.031,0 -0.06046,0.005 -0.02946,0.003 -0.05736,0.0109 l -0.02479,0.57671 h 0.03721 q 0.06666,0 0.134874,-0.0171 0.06976,-0.017 0.124023,-0.0527 0.05581,-0.0357 0.08992,-0.0915 0.03566,-0.0558 0.03566,-0.13333 z"
         id="path1018" />
      <path
         style="color:#000000;font-family:'Courier Prime';-inkscape-font-specification:'Luckiest Guy';white-space:pre;fill:#e6e6e6;fill-opacity:1;stroke:none;stroke-width:10.541;stroke-linejoin:miter;stroke-dashoffset:1334.34;stroke-opacity:1;-inkscape-stroke:none"
         d="m 39.736426,105.67196 q 0,0.2124 -0.07441,0.36742 -0.07286,0.15348 -0.201538,0.25425 -0.127125,0.0992 -0.299207,0.14728 -0.170532,0.0465 -0.367419,0.0465 -0.07596,0 -0.167434,-0.0202 -0.08992,-0.0202 -0.182933,-0.0496 -0.09302,-0.031 -0.179834,-0.0651 -0.08526,-0.0357 -0.151929,-0.0667 l 0.06821,-0.60772 q 0.131776,0.0791 0.291457,0.12093 0.161229,0.0403 0.316259,0.0403 0.02946,0 0.07131,-0.002 0.04186,-0.003 0.07907,-0.0139 0.03876,-0.0124 0.06511,-0.0357 0.02635,-0.0233 0.02635,-0.0667 0,-0.0295 -0.0186,-0.0496 -0.0186,-0.0217 -0.04806,-0.0341 -0.02946,-0.0139 -0.06666,-0.0202 -0.03721,-0.008 -0.07286,-0.0109 -0.03566,-0.003 -0.06666,-0.003 -0.03101,0 -0.04961,0 -0.133323,0 -0.243395,-0.0419 -0.108522,-0.0419 -0.187585,-0.11783 -0.07751,-0.0775 -0.120925,-0.18603 -0.04341,-0.11007 -0.04341,-0.2434 0,-0.18293 0.07286,-0.32711 0.07441,-0.14573 0.196887,-0.24649 0.124024,-0.10232 0.283705,-0.15658 0.159679,-0.0543 0.330213,-0.0543 0.07597,0 0.156578,0.006 0.08062,0.005 0.159681,0.0186 0.08062,0.0139 0.156581,0.0357 0.07596,0.0217 0.144177,0.0543 l -0.05891,0.62941 q -0.10542,-0.0356 -0.221691,-0.0589 -0.114721,-0.0248 -0.224793,-0.0248 -0.02016,0 -0.05271,0.002 -0.03101,0 -0.06666,0.005 -0.03411,0.003 -0.06976,0.0109 -0.03566,0.008 -0.06356,0.0217 -0.02791,0.0124 -0.04496,0.0341 -0.01704,0.0217 -0.0155,0.0512 0.0016,0.0341 0.02479,0.0527 0.02479,0.0186 0.06201,0.0279 0.03876,0.008 0.08372,0.008 0.04651,0 0.09147,-0.002 0.04496,-0.003 0.08372,-0.005 0.03876,-0.003 0.06356,-0.002 0.124023,0.008 0.223242,0.0527 0.09922,0.045 0.167431,0.11938 0.06977,0.0744 0.105421,0.17828 0.03721,0.10232 0.03721,0.22634 z"
         id="path1024" />
    </g>
    <g
       id="g9132"
       transform="matrix(0.42419026,0.24490636,-0.24490636,0.42419026,71.461333,-1.0760305)">
      <circle
         style="fill:#282828;fill-opacity:1;stroke:#e6e6e6;stroke-width:0.454426;stroke-linejoin:round;stroke-dasharray:none;stroke-dashoffset:1334.34;stroke-opacity:1"
         id="path5455"
         cx="103.58802"
         cy="40.680267"
         r="5.4760394" />
      <g
         id="g5486"
         transform="matrix(0.78949951,-0.45581774,0.45581774,0.78949951,3.185961,55.931038)"
         style="fill:#e6e6e6;fill-opacity:1">
        <path
           style="color:#000000;font-size:6.89483px;font-family:'Luckiest Guy';-inkscape-font-specification:'Luckiest Guy';fill:#e6e6e6;fill-opacity:1;stroke:none;stroke-width:22.8908;stroke-linejoin:miter;stroke-dashoffset:1334.34;stroke-opacity:1;-inkscape-stroke:none"
           d="m 103.94215,38.409051 -1.23219,4.551666 -1.66984,0.09427 -1.514975,-4.396801 1.595775,-0.148131 0.64639,2.558628 0.62619,-2.760625 z"
           id="path5464" />
        <path
           style="color:#000000;font-size:6.89483px;font-family:'Luckiest Guy';-inkscape-font-specification:'Luckiest Guy';fill:#e6e6e6;fill-opacity:1;stroke:none;stroke-width:22.8908;stroke-linejoin:miter;stroke-dashoffset:1334.34;stroke-opacity:1;-inkscape-stroke:none"
           d="m 107.39629,41.40534 q 0,0.461226 -0.16159,0.797888 -0.15823,0.333295 -0.43766,0.552125 -0.27607,0.215463 -0.64976,0.319829 -0.37033,0.100998 -0.79789,0.100998 -0.16496,0 -0.36359,-0.04377 -0.19527,-0.04377 -0.39726,-0.107732 -0.202,-0.06733 -0.39053,-0.141398 -0.18517,-0.07743 -0.32993,-0.144764 l 0.14813,-1.319714 q 0.28616,0.171698 0.63293,0.262596 0.35012,0.08753 0.68679,0.08753 0.064,0 0.15486,-0.0034 0.0909,-0.0067 0.1717,-0.0303 0.0842,-0.02693 0.14139,-0.07743 0.0572,-0.0505 0.0572,-0.144764 0,-0.06397 -0.0404,-0.107732 -0.0404,-0.04713 -0.10437,-0.07407 -0.064,-0.0303 -0.14476,-0.04377 -0.0808,-0.01683 -0.15823,-0.02357 -0.0774,-0.0067 -0.14477,-0.0067 -0.0673,0 -0.10773,0 -0.28953,0 -0.52856,-0.0909 -0.23566,-0.0909 -0.40736,-0.255863 -0.16833,-0.168331 -0.26259,-0.403994 -0.0943,-0.239029 -0.0943,-0.528558 0,-0.397261 0.15823,-0.710357 0.1616,-0.316461 0.42756,-0.535292 0.26933,-0.222196 0.61609,-0.340028 0.34676,-0.117831 0.71709,-0.117831 0.16497,0 0.34003,0.01347 0.17506,0.0101 0.34676,0.0404 0.17507,0.0303 0.34003,0.07743 0.16496,0.04713 0.3131,0.117831 l -0.12794,1.366846 q -0.22893,-0.07743 -0.48142,-0.127931 -0.24913,-0.05387 -0.48816,-0.05387 -0.0438,0 -0.11447,0.0034 -0.0673,0 -0.14476,0.0101 -0.0741,0.0067 -0.1515,0.02357 -0.0774,0.01683 -0.13803,0.04713 -0.0606,0.02693 -0.0976,0.07406 -0.037,0.04713 -0.0337,0.111099 0.003,0.07407 0.0539,0.114464 0.0539,0.0404 0.13466,0.0606 0.0842,0.01683 0.1818,0.01683 0.101,0 0.19863,-0.0034 0.0976,-0.0067 0.1818,-0.0101 0.0842,-0.0067 0.13803,-0.0034 0.26933,0.01683 0.48479,0.114465 0.21546,0.09763 0.3636,0.259229 0.15149,0.161598 0.22893,0.387161 0.0808,0.222197 0.0808,0.491526 z"
           id="path5470" />
      </g>
    </g>
  </g>
</svg>
